<svg xmlns="http://www.w3.org/2000/svg" xmlns:xlink="http://www.w3.org/1999/xlink" viewBox="0 0 188.95 195.16"><defs><style>.cls-1{fill:url(#Dégradé_sans_nom_9);}</style><linearGradient id="Dégradé_sans_nom_9" y1="97.58" x2="188.95" y2="97.58" gradientUnits="userSpaceOnUse"><stop offset="0" stop-color="#1d71b8"/><stop offset="1" stop-color="#36a9e1"/></linearGradient></defs><title>Fichier 1</title><g id="Calque_2" data-name="Calque 2"><g id="Calque_1-2" data-name="Calque 1"><path class="cls-1" d="M24.53,142.34c0-13.72-.16-27.45.1-41.16.07-3.77-1.09-4.6-4.58-4.4-5.22.31-10.47.1-15.71.08-4,0-4.78-1-4.14-5a10.9,10.9,0,0,1,3.43-6.07C13.86,75.57,23.78,65,34.36,55.18,52.14,38.63,68.74,20.9,86.16,4c5.47-5.3,10-5.33,15.56-.18C124.66,25.07,146,48,168.47,69.67c5.45,5.25,10.94,10.46,16.34,15.77a13.13,13.13,0,0,1,3,3.79c2.46,5.28,1,7.63-4.73,7.63-5.36,0-10.73.16-16.08-.06-2.8-.12-3.55.69-3.54,3.52.11,27.31.07,54.63.07,81.94,0,9.46-3.39,12.88-12.76,12.89H125.33c-8.15,0-10.62-2.53-10.62-10.81,0-9.1,0-18.21,0-27.31,0-7.66-3.6-11.2-11.27-11.25q-9.17-.08-18.33,0c-7.39.08-11,3.69-11,11.14,0,9.48,0,19,0,28.44,0,7-2.8,9.76-9.75,9.78q-14,0-28.06,0c-7.93,0-11.71-3.77-11.73-11.64C24.51,169.78,24.53,156.06,24.53,142.34Z"/></g></g></svg>