<svg xmlns="http://www.w3.org/2000/svg" xmlns:xlink="http://www.w3.org/1999/xlink" viewBox="0 0 65.73 43.18"><defs><style>.cls-1{fill:url(#Blanc_Noir);}.cls-2{fill:url(#Dégradé_sans_nom_32);}.cls-3{fill:url(#Dégradé_sans_nom_42);}.cls-4{fill:url(#Dégradé_sans_nom_52);}.cls-5{fill:url(#Dégradé_sans_nom_36);}.cls-6{fill:url(#Dégradé_sans_nom_45);}</style><linearGradient id="Blanc_Noir" x1="32.86" y1="43.18" x2="32.86" gradientUnits="userSpaceOnUse"><stop offset="0" stop-color="#fff"/><stop offset="1" stop-color="#1d1d1b"/></linearGradient><linearGradient id="Dégradé_sans_nom_32" x1="15.84" y1="43.18" x2="15.84" y2="2.61" gradientUnits="userSpaceOnUse"><stop offset="0" stop-color="#36a9e1"/><stop offset="1" stop-color="#005d84"/></linearGradient><linearGradient id="Dégradé_sans_nom_42" x1="33.7" y1="35.61" x2="33.7" gradientUnits="userSpaceOnUse"><stop offset="0" stop-color="#00000e"/><stop offset="0" stop-color="#00000f"/><stop offset="0.06" stop-color="#00192e"/><stop offset="0.12" stop-color="#002e49"/><stop offset="0.19" stop-color="#00405f"/><stop offset="0.27" stop-color="#004d70"/><stop offset="0.37" stop-color="#00567b"/><stop offset="0.51" stop-color="#005c82"/><stop offset="0.9" stop-color="#005d84"/></linearGradient><linearGradient id="Dégradé_sans_nom_52" x1="45.57" y1="15.23" x2="45.57" y2="2.61" gradientUnits="userSpaceOnUse"><stop offset="0" stop-color="#2286ad"/><stop offset="0.01" stop-color="#2084ab"/><stop offset="0.14" stop-color="#12739a"/><stop offset="0.29" stop-color="#08668d"/><stop offset="0.5" stop-color="#025f86"/><stop offset="1" stop-color="#005d84"/></linearGradient><linearGradient id="Dégradé_sans_nom_36" x1="48.87" y1="43.18" x2="48.87" y2="7.03" gradientUnits="userSpaceOnUse"><stop offset="0" stop-color="#36a9e1"/><stop offset="0.01" stop-color="#34a6de"/><stop offset="0.09" stop-color="#2490c2"/><stop offset="0.18" stop-color="#177dab"/><stop offset="0.29" stop-color="#0d6f9a"/><stop offset="0.42" stop-color="#05658d"/><stop offset="0.59" stop-color="#015f86"/><stop offset="1" stop-color="#005d84"/></linearGradient><linearGradient id="Dégradé_sans_nom_45" x1="40.16" y1="15.23" x2="40.16" y2="10.99" gradientUnits="userSpaceOnUse"><stop offset="0" stop-color="#3a6f9b"/><stop offset="0.09" stop-color="#276994"/><stop offset="0.21" stop-color="#16648d"/><stop offset="0.35" stop-color="#096088"/><stop offset="0.54" stop-color="#025e85"/><stop offset="1" stop-color="#005d84"/></linearGradient></defs><title>Fichier 2</title><g id="Calque_2" data-name="Calque 2"><g id="Calque_1-2" data-name="Calque 1"><path class="cls-1" d="M17.26,2.61h-3a2.78,2.78,0,0,0-2.66,1.94L.1,40.52a2,2,0,0,0,1.95,2.66H6.36L9.11,34l2.06-6.84,4.49-15.06,4.58,15.06L22.39,34l2.9,9.21h4a2.38,2.38,0,0,0,2.26-3.12L19.91,4.53A2.77,2.77,0,0,0,17.26,2.61Z"/><path class="cls-1" d="M65.73,0S49.35,35.63,1.67,35.61L3.45,30S20,29,33.7,22.88,60.24,7.76,65.73,0Z"/><path class="cls-1" d="M42.85,9.47h4.28c2.53-1.85,5.21-4,7.86-6.23l-.1,0q-1.86-.62-8-.61H36.15V15.23c1.69-.13,4-1.2,6.7-2.85Z"/><path class="cls-1" d="M59.67,7.18a.34.34,0,0,0-.5-.08c-1.86,1.52-3.76,3-5.65,4.31l.1.14a6,6,0,0,1,1.07,3.65,6.45,6.45,0,0,1-.76,3.16,4.69,4.69,0,0,1-2.1,2,14.44,14.44,0,0,1-5.3.64H43.2a.35.35,0,0,1-.35-.35V19a.34.34,0,0,0-.51-.29c-3.12,1.84-5.37,3-6,3.38a.35.35,0,0,0-.18.31v18.9a1.9,1.9,0,0,0,1.9,1.9h4.46a.34.34,0,0,0,.34-.34V28.22a.35.35,0,0,1,.35-.34h4a32,32,0,0,0,7-.58,9.07,9.07,0,0,0,3.48-1.93,10.79,10.79,0,0,0,2.82-4,15.69,15.69,0,0,0,1.11-6.28,14.56,14.56,0,0,0-1.93-7.9Z"/><path class="cls-1" d="M36.15,15.23s5.63-.1,8-4.24Z"/><path class="cls-2" d="M17.26,2.61h-3a2.78,2.78,0,0,0-2.66,1.94L.1,40.52a2,2,0,0,0,1.95,2.66H6.36L9.11,34l2.06-6.84,4.49-15.06,4.58,15.06L22.39,34l2.9,9.21h4a2.38,2.38,0,0,0,2.26-3.12L19.91,4.53A2.77,2.77,0,0,0,17.26,2.61Z"/><path class="cls-3" d="M65.73,0S49.35,35.63,1.67,35.61L3.45,30S20,29,33.7,22.88,60.24,7.76,65.73,0Z"/><path class="cls-4" d="M42.85,9.47h4.28c2.53-1.85,5.21-4,7.86-6.23l-.1,0q-1.86-.62-8-.61H36.15V15.23c1.69-.13,4-1.2,6.7-2.85Z"/><path class="cls-5" d="M59.67,7.18a.34.34,0,0,0-.5-.08c-1.86,1.52-3.76,3-5.65,4.31l.1.14a6,6,0,0,1,1.07,3.65,6.45,6.45,0,0,1-.76,3.16,4.69,4.69,0,0,1-2.1,2,14.44,14.44,0,0,1-5.3.64H43.2a.35.35,0,0,1-.35-.35V19a.34.34,0,0,0-.51-.29c-3.12,1.84-5.37,3-6,3.38a.35.35,0,0,0-.18.31v18.9a1.9,1.9,0,0,0,1.9,1.9h4.46a.34.34,0,0,0,.34-.34V28.22a.35.35,0,0,1,.35-.34h4a32,32,0,0,0,7-.58,9.07,9.07,0,0,0,3.48-1.93,10.79,10.79,0,0,0,2.82-4,15.69,15.69,0,0,0,1.11-6.28,14.56,14.56,0,0,0-1.93-7.9Z"/><path class="cls-6" d="M36.15,15.23s5.63-.1,8-4.24Z"/></g></g></svg>