<?xml version="1.0" encoding="utf-8"?>
<!-- Generator: Adobe Illustrator 24.1.0, SVG Export Plug-In . SVG Version: 6.00 Build 0)  -->
<svg version="1.1" id="Calque_1" xmlns="http://www.w3.org/2000/svg" xmlns:xlink="http://www.w3.org/1999/xlink" x="0px" y="0px"
	 viewBox="0 0 107.7 93.5" style="enable-background:new 0 0 107.7 93.5;" xml:space="preserve">
<style type="text/css">
	.st0{fill:#355B9B;}
	.st1{fill:#FFFFFF;}
	.st2{enable-background:new    ;}
	.st3{fill:#FF0000;}
</style>
<g>
	<g id="Calque_2_1_">
		<g id="Calque_1-2">
			<path class="st0" d="M104.4,79c0,6.9-5.5,12.4-12.4,12.4l0,0H27.5c-6.9,0-12.4-5.5-12.4-12.4l0,0V14.5c0-6.9,5.5-12.4,12.4-12.4
				H92c6.9,0,12.4,5.5,12.4,12.4V79z"/>
			<path class="st1" d="M82.2,50.7c-1.7-2.3-4.1-3.9-6.9-4.5c0,0,2.6-0.9,4.8-4.4c1.4-2.4,2.1-5.1,2.1-7.9c0-5.3-1.9-9.4-5.8-12.2
				C72.4,18.9,68,17,60.7,17H37.4v59.5h25.9c7-0.1,12.3-1.6,15.9-4.5c3.6-2.9,5.4-7.3,5.4-13.1C84.7,56,83.8,53.1,82.2,50.7z
				 M52.3,26.9h10.6c3.8,0,6.9,3.1,6.9,6.9c0,3.8-3.1,6.9-6.9,6.9H52.3V26.9z M64.7,66.6H52.3V51.7h12.4c4.1,0,7.4,3.3,7.4,7.4
				S68.9,66.6,64.7,66.6z"/>
		</g>
	</g>
	<g class="st2">
		<path class="st3" d="M8.3,71.6L3.6,42.4c-0.1-0.8-0.2-1.6-0.2-2.5v-8.8c0-2.4,2.9-4.3,6.5-4.3h9.5c3.6,0,6.5,1.9,6.5,4.3V40
			c0,0.8-0.1,1.6-0.2,2.3l-4.5,29.2c-0.3,2.2-3.1,3.8-6.5,3.8h0C11.5,75.4,8.7,73.7,8.3,71.6z M4.2,87.1v-0.5c0-2.4,2.9-4.3,6.5-4.3
			h7.9c3.6,0,6.5,1.9,6.5,4.3v0.5c0,2.4-2.9,4.3-6.5,4.3h-7.9C7.1,91.4,4.2,89.5,4.2,87.1z"/>
	</g>
</g>
</svg>
