<svg xmlns="http://www.w3.org/2000/svg" xmlns:xlink="http://www.w3.org/1999/xlink" viewBox="0 0 189.84 189.96"><defs><style>.cls-1{fill:url(#Dégradé_sans_nom_23);}.cls-2{fill:url(#Dégradé_sans_nom_23-2);}</style><linearGradient id="Dégradé_sans_nom_23" x1="94.92" y1="189.96" x2="94.92" gradientUnits="userSpaceOnUse"><stop offset="0" stop-color="#765c79"/><stop offset="0.04" stop-color="#6b698b"/><stop offset="0.11" stop-color="#5b7da6"/><stop offset="0.19" stop-color="#4d8dbc"/><stop offset="0.28" stop-color="#439acd"/><stop offset="0.39" stop-color="#3ba3d8"/><stop offset="0.55" stop-color="#37a8df"/><stop offset="1" stop-color="#36a9e1"/></linearGradient><linearGradient id="Dégradé_sans_nom_23-2" x1="94.92" y1="158.92" x2="94.92" y2="31.04" xlink:href="#Dégradé_sans_nom_23"/></defs><title>Fichier 2</title><g id="Calque_2" data-name="Calque 2"><g id="Calque_1-2" data-name="Calque 1"><path class="cls-1" d="M93.18,0C40.17,1-.61,43.58,0,96,.64,149,42.9,189.58,95.12,190c53.72-.71,95.33-43.15,94.72-96.07C189.24,40.55,146.4-1,93.18,0Zm1.74,183.62a88.6,88.6,0,1,1,88.55-88.77C183.59,142.79,145,183.64,94.92,183.64Z"/><path class="cls-2" d="M152.59,141.52c-7.47,9.13-16.85,15.08-28.61,17-6.83,1.1-13.42-.1-19.89-2.23A76.57,76.57,0,0,1,73.6,137.41a217.33,217.33,0,0,1-23.68-27.48,76.57,76.57,0,0,1-13.67-31.8c-.4-2.37-.51-4.79-.76-7.19-.18-14.5,5.88-26,16.58-35.42a18.82,18.82,0,0,1,7-4c3.35-1,6.46-.52,8.87,2.05,5.71,6.07,10.55,12.75,13.53,20.62a16.74,16.74,0,0,1,1.05,9.54,9,9,0,0,1-2.9,5.12c-2.72,2.33-5.43,4.67-8.28,6.81-4.61,3.45-6,7.56-4.15,13,1.59,4.56,4.3,8.52,7,12.44A104.28,104.28,0,0,0,94.16,122,18.83,18.83,0,0,0,98,124.31c5.6,2.63,10.6,1.41,14.43-3.43a23.59,23.59,0,0,1,6.82-6c5.32-3,10.55-3.15,15.67.55,5.76,4.18,11.46,8.43,16.3,13.7a11.59,11.59,0,0,1,3,5.67A7.69,7.69,0,0,1,152.59,141.52Z"/></g></g></svg>