<svg xmlns="http://www.w3.org/2000/svg" xmlns:xlink="http://www.w3.org/1999/xlink" viewBox="0 0 360 640"><defs><style>.cls-1{fill:url(#Blanc_Noir);}.cls-2{fill:#202037;}.cls-3{fill:#fff;}.cls-4{fill:#1c1e33;}.cls-5{fill:#1b1e33;}.cls-6{fill:#1c1e34;}.cls-7{fill:#191b30;}.cls-8{fill:#1a1c32;}</style><linearGradient id="Blanc_Noir" x1="180" y1="640" x2="180" gradientUnits="userSpaceOnUse"><stop offset="0" stop-color="#fff"/><stop offset="1" stop-color="#1d1d1b"/></linearGradient></defs><title>fond</title><g id="Calque_2" data-name="Calque 2"><g id="Calque_1-2" data-name="Calque 1"><path class="cls-1" d="M358.61,639.89q-177.2,0-354.37.11C.46,640,0,639,0,635.58Q.14,318.42.08,1.25C1.8.33,3.67.78,5.46.78Q179.22.75,353,.77c6.81,0,6.1-.74,6.1,6.13q0,313.8,0,627.6C359.07,636.29,359.53,638.16,358.61,639.89Z" transform="translate(0)"/><path class="cls-1" d="M358.61,639.89q0-316.32.12-632.63c0-5-1.11-6.14-6.11-6.13Q176.36,1.37.08,1.25C1.19-.84,3.1.32,4.56.32Q112.13.22,219.68.25,287.9.25,356.12.17c3,0,3.56.6,3.56,3.58q-.14,316.32-.18,632.65C359.5,637.42,361.09,639.34,358.61,639.89Z" transform="translate(0)"/><path class="cls-1" d="M103.65,421.35c-10.82-21.07-21.46-42.24-32.85-63-4.69-8.56-8.75-17.47-13.15-26.19-2.3-4.56-2.26-8.84.88-13.06A63,63,0,0,1,71,306.31c3.67-2.76,8.3-3.81,13-1.09,8.33,4.77,17.08,8.73,25.66,13,18.84,9.43,37.44,19.33,56.15,29,1.75.91,3.65,1.52,5.49,2.27.55.45,1.32.66,1.58,1.44a3.92,3.92,0,0,1-.49,2.88c-4.34,8-8.52,16.15-13.65,23.72a2.78,2.78,0,0,1-1.37.42c-8.87-3.37-16.59-8.93-25-13.17-11.07-5.58-22-11.39-33.58-17.95,4.21,9.32,8.8,17.34,13.19,25.45,4.82,8.9,9.35,17.95,14.29,26.79a7.12,7.12,0,0,1,1,3.32c.16,4.82-2.08,8.41-5.55,11.53-2.93,2.63-5.54,5.61-8.4,8.31C108.88,426.49,107.67,426.35,103.65,421.35Z" transform="translate(0)"/><path class="cls-1" d="M212.21,329.55h-1c-1.54-.58-2.63-1.5-2.46-3.35a254.33,254.33,0,0,0,12.84-50c-3.06,1.15-4.41,3.26-6.08,4.86-5.42,5.21-6.72,5.26-12.41.35-1-.87-1.86-1.87-2.84-2.76,4.81-19.18,9.61-38.37,12.94-57.88,4.65-3.08,7.87,1.59,12.08,2.43.65-9.34-.67-18.34-1.34-27.37-.18-2.43-1-5,1.21-7,17.89,7.22,30.66,20.31,39.28,37s8.88,33.41-3.48,49a241.3,241.3,0,0,1-28.82,30.79c1.09,6.39-3.25,9.94-7.12,13.75-2.72,2.68-5.34,5.46-8.12,8.07C215.6,328.64,214.39,330.22,212.21,329.55Z" transform="translate(0)"/><path class="cls-1" d="M209.22,326.56l2,3c-3.31,3.55-3.64,8.45-5.64,12.61-2.5,5.22-4.16,10.87-6.9,15.94-1.8,3.33-1,4.62,1.94,6.1,10.49,5.31,20.9,10.79,31.36,16.16,9.65,4.95,10.78,11.93,3.07,19.59-3.75,3.73-7.2,9.51-11.57,10.37-4,.79-9-3.77-13.55-6.09-7.94-4.08-15.9-8.13-23.71-12.44-3.21-1.77-4.94-1.09-6.79,1.93a326.31,326.31,0,0,1-32.94,44.6c-2.7.49-3.36-1.68-4-3.41-2.08-5.24-5.9-9.55-7.8-14.91-1.11-3.14-2.85-3.24-4.81-.41-3.29,4.77-7.26,9-10.84,13.55-1.7,2.16-3.28,4.65-6.36,5.18-3.63-5.32-6-11.28-9-17,3.31,3.62,6.21,3.29,9.17-.6a48.11,48.11,0,0,1,5.89-6c3.74-3.43,7.25-7,7.85-12.38,2.88,0,3,2.73,4,4.41,1.69,3,2.94,3.69,5.09.35,5.29-8.22,11.8-15.62,16.32-24.39,1.18-2.27,2.45-4.82,5.5-5.32h1c2.11-1,3.85.24,5.64,1,3.69,1.51,7,3.79,10.41,5.8,6.26,3.65,7,3.59,10.34-2.6,2.29-4.23,4.84-8.3,7-12.58,3-5.9,2.92-6.13-2.8-9-3.84-1.95-7.62-4-11.61-5.67a11.58,11.58,0,0,1-5.06-3.83l-1-1c2.5-.34,2.77-2.65,3.61-4.32,7.91-15.82,13.85-32.41,19.36-49.18a6.53,6.53,0,0,1,1.92-3.38c2.34,2.65,1,5.58-.07,7.94-2.91,6.52-1.08,11.15,4.11,15.62C203.71,319.13,207.72,321.85,209.22,326.56Z" transform="translate(0)"/><path class="cls-1" d="M181.87,250.5c2.25,13.24-2,24.19-9.49,34.29-1.72,2.31-2.85,2.77-4.91.5-2.79-3.07-5.79-6-8.76-8.83-8.8-8.53-17.58-17.09-26.5-25.49-2.45-2.31-2.71-3.85-.14-6.38,12.89-12.68,25.4-25.75,38.47-38.24,5.47-5.22,10.93-10.58,17.42-14.67,2.57-1.63,3.66-1.24,3.32,1.83-1.09,9.67-2.25,19.34-3.39,29-.25,2.14-.66,4.26-.78,6.39-.42,7.61-6.88,10.9-11.2,15.68-1.76,1.94-2.76,3.26-.83,5.82C178,254.25,178.55,254.45,181.87,250.5Z" transform="translate(0)"/><path class="cls-1" d="M212.21,329.55c5.61-5.47,11.17-11,16.87-16.4,2.23-2.11,1.31-5.33,3-7.55-.35,2.76,1.68,4.17,3.3,5.8,13.49,13.52,26.91,27.11,40.53,40.5,2.75,2.71,3.12,4.45.07,7.12-3.74,3.27-7.07,7-10.62,10.51-5.28,5.22-9.4,5.25-14.93-.18-8.41-8.26-16.65-16.7-25-25A119.85,119.85,0,0,1,212.21,329.55Z" transform="translate(0)"/><path class="cls-1" d="M146.48,439.32q8.15,15,16.31,29.94c.9,1.65.26,2.83-.87,4-4.33,4.33-8.49,8.84-13,12.92-4.26,3.81-9.76,2.91-13-2.46-4.14-6.93-7.6-14.26-11.35-21.41.64-2.74,2.89-4.35,4.48-6.42,3.93-5.1,8.89-9.27,12.86-14.36C143,440.14,144.29,438.62,146.48,439.32Z" transform="translate(0)"/><path class="cls-1" d="M209.22,326.56c-5.07-4.92-10.11-9.85-15.21-14.73-1.5-1.44-1.55-2.87-1.09-4.87,1.08-4.79,3.37-9.29,3.35-14.33l4-14c2.74-.35,4.19,1.64,5.76,3.3,2.25,2.38,4.2,2.68,6.53-.06s4.85-5,7.33-7.41c.67-.65,1.34-1.7,2.47-1.16s.9,1.75.77,2.66c-.62,4.4-1.08,8.85-2.11,13.16-2.72,11.39-5.29,22.83-9.45,33.82C211,324.36,210.81,325.88,209.22,326.56Z" transform="translate(0)"/><path class="cls-1" d="M146.48,439.32c-5.91,4.95-10.43,11.21-15.72,16.75-2,2.12-3.73,4.52-6.19,6.2q-6-12-11.95-23.95c5.89-7.13,12.19-13.92,17.35-21.63,1.89-2.82,3.82-2.61,4.93.53,2.27,6.44,7,11.61,9.13,18.09a4.67,4.67,0,0,0,2.45,3Z" transform="translate(0)"/><path class="cls-1" d="M225.15,188.85c.43,10.67,2.35,21.24,2,32-.05,1.63,0,3.26,0,5.16-5.07-1.34-8.69-5.52-14-5.18q1.5-14,3-27.94a2.3,2.3,0,0,0,.5-1.35c0-2-.43-4.32,2.06-5s4.94-.23,6.4,2.38Z" transform="translate(0)"/><path class="cls-1" d="M225.15,188.85c-6.54-2.22-6.57-2.21-9,4a221,221,0,0,0,.22-42.65C221,162.73,223,175.81,225.15,188.85Z" transform="translate(0)"/><path class="cls-1" d="M157.43,377.45c-7.88,11.9-15.37,24.08-24.75,35.75l-6.12-10.8L95.88,345.27c2.12-.61,3.65.2,5,.93q27.87,15,55.66,30.07C156.94,376.48,157.14,377.05,157.43,377.45Z" transform="translate(0)"/><path class="cls-1" d="M172.37,350.51c7.16,3.41,14.3,6.85,21.47,10.23,2,.94,2.86,2.11,1.66,4.28-4.23,7.64-8.36,15.33-12.62,23-1.24,2.2-2.9.73-4.3.06-6.83-3.31-13-7.9-20.15-10.58.36-4.33,3.69-7.2,5.4-10.87C166.38,361.08,169.5,355.85,172.37,350.51Z" transform="translate(0)"/><path class="cls-1" d="M225.47,268.51c-1.06-7.07.55-13.12.94-19.18.37-5.61.58-11.21.76-16.83,0-1.08-.5-2.57.9-3.07s2,.84,2.69,1.72c8.61,10.73,8.14,22.61-1.25,32.69C228.3,265.13,227.18,266.52,225.47,268.51Z" transform="translate(0)"/><path class="cls-2" d="M358.61,639.89q-177.2,0-354.37.11C.46,640,0,639,0,635.58Q.14,318.42.08,1.25C1.8.33,3.67.78,5.46.78Q179.22.75,353,.77c6.81,0,6.1-.74,6.1,6.13q0,313.8,0,627.6C359.07,636.29,359.53,638.16,358.61,639.89Z" transform="translate(0)"/><path class="cls-3" d="M358.61,639.89q0-316.32.12-632.63c0-5-1.11-6.14-6.11-6.13Q176.36,1.37.08,1.25C1.19-.84,3.1.32,4.56.32Q112.13.22,219.68.25,287.9.25,356.12.17c3,0,3.56.6,3.56,3.58q-.14,316.32-.18,632.65C359.5,637.42,361.09,639.34,358.61,639.89Z" transform="translate(0)"/><path class="cls-4" d="M103.65,421.35c-10.82-21.07-21.46-42.24-32.85-63-4.69-8.56-8.75-17.47-13.15-26.19-2.3-4.56-2.26-8.84.88-13.06A63,63,0,0,1,71,306.31c3.67-2.76,8.3-3.81,13-1.09,8.33,4.77,17.08,8.73,25.66,13,18.84,9.43,37.44,19.33,56.15,29,1.75.91,3.65,1.52,5.49,2.27.55.45,1.32.66,1.58,1.44a3.92,3.92,0,0,1-.49,2.88c-4.34,8-8.52,16.15-13.65,23.72a2.78,2.78,0,0,1-1.37.42c-8.87-3.37-16.59-8.93-25-13.17-11.07-5.58-22-11.39-33.58-17.95,4.21,9.32,8.8,17.34,13.19,25.45,4.82,8.9,9.35,17.95,14.29,26.79a7.12,7.12,0,0,1,1,3.32c.16,4.82-2.08,8.41-5.55,11.53-2.93,2.63-5.54,5.61-8.4,8.31C108.88,426.49,107.67,426.35,103.65,421.35Z" transform="translate(0)"/><path class="cls-5" d="M212.21,329.55h-1c-1.54-.58-2.63-1.5-2.46-3.35a254.33,254.33,0,0,0,12.84-50c-3.06,1.15-4.41,3.26-6.08,4.86-5.42,5.21-6.72,5.26-12.41.35-1-.87-1.86-1.87-2.84-2.76,4.81-19.18,9.61-38.37,12.94-57.88,4.65-3.08,7.87,1.59,12.08,2.43.65-9.34-.67-18.34-1.34-27.37-.18-2.43-1-5,1.21-7,17.89,7.22,30.66,20.31,39.28,37s8.88,33.41-3.48,49a241.3,241.3,0,0,1-28.82,30.79c1.09,6.39-3.25,9.94-7.12,13.75-2.72,2.68-5.34,5.46-8.12,8.07C215.6,328.64,214.39,330.22,212.21,329.55Z" transform="translate(0)"/><path class="cls-6" d="M209.22,326.56l2,3c-3.31,3.55-3.64,8.45-5.64,12.61-2.5,5.22-4.16,10.87-6.9,15.94-1.8,3.33-1,4.62,1.94,6.1,10.49,5.31,20.9,10.79,31.36,16.16,9.65,4.95,10.78,11.93,3.07,19.59-3.75,3.73-7.2,9.51-11.57,10.37-4,.79-9-3.77-13.55-6.09-7.94-4.08-15.9-8.13-23.71-12.44-3.21-1.77-4.94-1.09-6.79,1.93a326.31,326.31,0,0,1-32.94,44.6c-2.7.49-3.36-1.68-4-3.41-2.08-5.24-5.9-9.55-7.8-14.91-1.11-3.14-2.85-3.24-4.81-.41-3.29,4.77-7.26,9-10.84,13.55-1.7,2.16-3.28,4.65-6.36,5.18-3.63-5.32-6-11.28-9-17,3.31,3.62,6.21,3.29,9.17-.6a48.11,48.11,0,0,1,5.89-6c3.74-3.43,7.25-7,7.85-12.38,2.88,0,3,2.73,4,4.41,1.69,3,2.94,3.69,5.09.35,5.29-8.22,11.8-15.62,16.32-24.39,1.18-2.27,2.45-4.82,5.5-5.32h1c2.11-1,3.85.24,5.64,1,3.69,1.51,7,3.79,10.41,5.8,6.26,3.65,7,3.59,10.34-2.6,2.29-4.23,4.84-8.3,7-12.58,3-5.9,2.92-6.13-2.8-9-3.84-1.95-7.62-4-11.61-5.67a11.58,11.58,0,0,1-5.06-3.83l-1-1c2.5-.34,2.77-2.65,3.61-4.32,7.91-15.82,13.85-32.41,19.36-49.18a6.53,6.53,0,0,1,1.92-3.38c2.34,2.65,1,5.58-.07,7.94-2.91,6.52-1.08,11.15,4.11,15.62C203.71,319.13,207.72,321.85,209.22,326.56Z" transform="translate(0)"/><path class="cls-5" d="M181.87,250.5c2.25,13.24-2,24.19-9.49,34.29-1.72,2.31-2.85,2.77-4.91.5-2.79-3.07-5.79-6-8.76-8.83-8.8-8.53-17.58-17.09-26.5-25.49-2.45-2.31-2.71-3.85-.14-6.38,12.89-12.68,25.4-25.75,38.47-38.24,5.47-5.22,10.93-10.58,17.42-14.67,2.57-1.63,3.66-1.24,3.32,1.83-1.09,9.67-2.25,19.34-3.39,29-.25,2.14-.66,4.26-.78,6.39-.42,7.61-6.88,10.9-11.2,15.68-1.76,1.94-2.76,3.26-.83,5.82C178,254.25,178.55,254.45,181.87,250.5Z" transform="translate(0)"/><path class="cls-6" d="M212.21,329.55c5.61-5.47,11.17-11,16.87-16.4,2.23-2.11,1.31-5.33,3-7.55-.35,2.76,1.68,4.17,3.3,5.8,13.49,13.52,26.91,27.11,40.53,40.5,2.75,2.71,3.12,4.45.07,7.12-3.74,3.27-7.07,7-10.62,10.51-5.28,5.22-9.4,5.25-14.93-.18-8.41-8.26-16.65-16.7-25-25A119.85,119.85,0,0,1,212.21,329.55Z" transform="translate(0)"/><path class="cls-6" d="M146.48,439.32q8.15,15,16.31,29.94c.9,1.65.26,2.83-.87,4-4.33,4.33-8.49,8.84-13,12.92-4.26,3.81-9.76,2.91-13-2.46-4.14-6.93-7.6-14.26-11.35-21.41.64-2.74,2.89-4.35,4.48-6.42,3.93-5.1,8.89-9.27,12.86-14.36C143,440.14,144.29,438.62,146.48,439.32Z" transform="translate(0)"/><path class="cls-7" d="M209.22,326.56c-5.07-4.92-10.11-9.85-15.21-14.73-1.5-1.44-1.55-2.87-1.09-4.87,1.08-4.79,3.37-9.29,3.35-14.33l4-14c2.74-.35,4.19,1.64,5.76,3.3,2.25,2.38,4.2,2.68,6.53-.06s4.85-5,7.33-7.41c.67-.65,1.34-1.7,2.47-1.16s.9,1.75.77,2.66c-.62,4.4-1.08,8.85-2.11,13.16-2.72,11.39-5.29,22.83-9.45,33.82C211,324.36,210.81,325.88,209.22,326.56Z" transform="translate(0)"/><path class="cls-8" d="M146.48,439.32c-5.91,4.95-10.43,11.21-15.72,16.75-2,2.12-3.73,4.52-6.19,6.2q-6-12-11.95-23.95c5.89-7.13,12.19-13.92,17.35-21.63,1.89-2.82,3.82-2.61,4.93.53,2.27,6.44,7,11.61,9.13,18.09a4.67,4.67,0,0,0,2.45,3Z" transform="translate(0)"/><path class="cls-7" d="M225.15,188.85c.43,10.67,2.35,21.24,2,32-.05,1.63,0,3.26,0,5.16-5.07-1.34-8.69-5.52-14-5.18q1.5-14,3-27.94a2.3,2.3,0,0,0,.5-1.35c0-2-.43-4.32,2.06-5s4.94-.23,6.4,2.38Z" transform="translate(0)"/><path class="cls-4" d="M225.15,188.85c-6.54-2.22-6.57-2.21-9,4a221,221,0,0,0,.22-42.65C221,162.73,223,175.81,225.15,188.85Z" transform="translate(0)"/><path class="cls-2" d="M157.43,377.45c-7.88,11.9-15.37,24.08-24.75,35.75l-6.12-10.8L95.88,345.27c2.12-.61,3.65.2,5,.93q27.87,15,55.66,30.07C156.94,376.48,157.14,377.05,157.43,377.45Z" transform="translate(0)"/><path class="cls-8" d="M172.37,350.51c7.16,3.41,14.3,6.85,21.47,10.23,2,.94,2.86,2.11,1.66,4.28-4.23,7.64-8.36,15.33-12.62,23-1.24,2.2-2.9.73-4.3.06-6.83-3.31-13-7.9-20.15-10.58.36-4.33,3.69-7.2,5.4-10.87C166.38,361.08,169.5,355.85,172.37,350.51Z" transform="translate(0)"/><path class="cls-2" d="M225.47,268.51c-1.06-7.07.55-13.12.94-19.18.37-5.61.58-11.21.76-16.83,0-1.08-.5-2.57.9-3.07s2,.84,2.69,1.72c8.61,10.73,8.14,22.61-1.25,32.69C228.3,265.13,227.18,266.52,225.47,268.51Z" transform="translate(0)"/></g></g></svg>