<?xml version="1.0" encoding="utf-8"?>
<!-- Generator: Adobe Illustrator 24.1.0, SVG Export Plug-In . SVG Version: 6.00 Build 0)  -->
<svg version="1.1" id="Calque_1" xmlns="http://www.w3.org/2000/svg" xmlns:xlink="http://www.w3.org/1999/xlink" x="0px" y="0px"
	 viewBox="0 0 107.7 90.7" style="enable-background:new 0 0 107.7 90.7;" xml:space="preserve">
<style type="text/css">
	.st0{fill:none;stroke:#355B9B;stroke-width:4;stroke-linecap:round;stroke-linejoin:round;}
	.st1{enable-background:new    ;}
	.st2{fill:#FF0000;}
</style>
<g>
	<g id="Calque_2_1_">
		<g id="Calque_1-2">
			<path class="st0" d="M24.5,20.7c-7.7,11.1-6.8,29.1-0.8,40.9c0.1,0.3,0.3,0.6,0.4,0.8c0.1,0.3,0.2,0.4,0.3,0.5
				c0.1,0.2,0.1,0.2,0.2,0.3l0.3,0.5c0.2,0.3,0.4,0.6,0.6,0.9c0.2,0.3,0.2,0.3,0.3,0.5s0.4,0.7,0.6,1c0.1,0.1,0.2,0.3,0.3,0.4
				c0.3,0.4,0.6,0.9,0.9,1.3l0,0l0.1,0.2c0.3,0.4,0.5,0.8,0.8,1.1c0.1,0.1,0.2,0.3,0.3,0.4l0.8,1l0.3,0.4c0.4,0.4,0.7,0.8,1.1,1.2
				l0,0l0,0c0.4,0.4,0.7,0.8,1.1,1.2l0.4,0.4c0.3,0.3,0.6,0.6,0.9,0.9l0.4,0.3c0.4,0.4,0.8,0.7,1.2,1.1l0,0l0.2,0.2l1.1,0.9l0.4,0.4
				l0.9,0.7l0.5,0.4c0.3,0.3,0.7,0.5,1,0.7c0.1,0.1,0.2,0.2,0.4,0.3l0.1,0.1l1,0.7l0.4,0.3c0.5,0.3,1,0.6,1.6,1l0.4,0.3
				c0.4,0.2,0.8,0.4,1.2,0.6c0.2,0.1,0.4,0.2,0.6,0.3l0.8,0.4l0.2,0.1l0.3,0.2l1.4,0.6c0.1,0,0.2,0.1,0.3,0.1c0.5,0.2,1,0.4,1.6,0.6
				l0.4,0.1c0.5,0.2,1,0.4,1.5,0.6l0.2,0.1c0.5,0.2,1.1,0.4,1.7,0.5l0.4,0.1c0.5,0.2,1.1,0.3,1.8,0.5c3.6,0.7,7.3,1,10.9,1
				c28.7,0,37.4-22.6,37.4-22.6c-9.1,11.8-25.4,14.2-40.6,10.7c-0.5-0.1-1.1-0.3-1.7-0.5L61.6,76c-0.5-0.2-1.1-0.3-1.7-0.5l-0.2-0.1
				c-0.5-0.2-0.9-0.3-1.5-0.5c-0.1-0.1-0.3-0.1-0.4-0.1l-1.6-0.6L56,74l-1.4-0.6l-0.4-0.1c-0.3-0.2-0.7-0.3-1-0.5l-0.7-0.3l-1.1-0.7
				l-0.4-0.2c-0.5-0.3-1-0.6-1.6-1l-0.5-0.2l-1.1-0.7l-0.4-0.3l-1-0.8c-0.1-0.1-0.3-0.2-0.4-0.4l-0.9-0.7L44.5,67
				c-0.4-0.3-0.8-0.7-1.2-1l-0.1-0.1l-1.4-1.2c-0.1-0.1-0.2-0.2-0.4-0.3l-0.9-0.9L40,63c-0.4-0.4-0.7-0.8-1.1-1.1v-0.1
				c-0.4-0.4-0.7-0.8-1.1-1.3l-0.3-0.3l-0.8-1c-0.1-0.1-0.2-0.2-0.3-0.4c-0.3-0.4-0.6-0.8-0.9-1.2C26.8,46,24.4,22,31.4,12.7
				C28.9,15,26.5,17.7,24.5,20.7z"/>
			<path class="st0" d="M48.2,12.8c-5.6,8.1-5.3,19-0.9,27.5c0.7,1.4,1.6,2.9,2.5,4.1c0.8,1.3,1.8,2.6,2.9,3.6
				c0.4,0.4,0.8,0.9,1.2,1.3l0.3,0.3c0.4,0.4,0.8,0.8,1.2,1.2l0.1,0.1l0,0c0.5,0.4,1,0.8,1.5,1.2c0.1,0.1,0.2,0.2,0.3,0.3
				c0.5,0.4,1,0.8,1.6,1.1H59c0.2,0.2,0.4,0.3,0.7,0.5c0.1,0.1,0.2,0.1,0.3,0.2c0.4,0.3,0.7,0.5,1.1,0.7l0.2,0.1
				c0.3,0.2,0.6,0.4,1,0.6l0.3,0.2c0.2,0.1,0.5,0.2,0.7,0.4h0.1c0.5,0.2,1,0.5,1.5,0.7l0.3,0.1c0.4,0.2,0.8,0.3,1.2,0.5l0.5,0.2
				l1.1,0.4l0.5,0.2c0.5,0.2,1,0.4,1.7,0.5c2.9,0.5,5.8,0.7,8.7,0.7c21.7-0.5,27-18.5,27-18.5c-6,8.7-17.8,13.1-30.2,9.9
				c-0.5-0.1-1.1-0.3-1.7-0.5l-0.5-0.1c-0.4-0.1-0.8-0.3-1.1-0.4L72.1,50c-0.4-0.2-0.8-0.3-1.2-0.5l-0.3-0.1c-0.5-0.2-1-0.5-1.6-0.7
				l-0.7-0.4L67.8,48c-0.3-0.2-0.6-0.4-0.9-0.5l-0.2-0.1c-0.4-0.2-0.8-0.5-1.1-0.7c-0.1-0.1-0.2-0.1-0.3-0.2
				c-0.3-0.2-0.5-0.3-0.7-0.5c-0.5-0.4-1-0.7-1.6-1.1l-0.4-0.3c-5.6-4.3-9.7-10.3-11.8-16.9c-2.2-7,0.1-14.9,3.6-21
				C52,8.3,50,10.4,48.2,12.8z"/>
			<path class="st0" d="M69.6,5.6c-1.8,2.7-2.7,5.7-2.8,8.9c0,2.5,0.5,4.9,1.5,7.2c2.4,5.6,7.1,10.1,12.9,12.2
				c0.2,0.1,0.5,0.2,0.7,0.2l0.3,0.1c0.3,0.1,0.6,0.2,1,0.3c1.5,0.3,2.9,0.5,4.4,0.5c12.1,0.4,15.6-8.8,16.6-10.3
				c-3.8,5.5-10.1,6.7-17.9,4.8c-0.6-0.2-1.1-0.4-1.7-0.6c-0.7-0.3-1.5-0.6-2.2-0.9c-1.4-0.6-2.7-1.4-3.8-2.4
				c-6.9-5.3-10-16.5-5.6-23.5C71.6,2.9,69.6,5.6,69.6,5.6z"/>
		</g>
	</g>
	<g class="st1">
		<path class="st2" d="M12.8,69.1l-4.4-30c0-0.2,0-0.3,0-0.5v-8.4c0-3,3.4-5.5,7.6-5.5h5.1c4.2,0,7.5,2.4,7.5,5.4v8.5
			c0,0.2,0,0.3,0,0.5l-4.2,29.7c-0.3,2.2-2.9,3.8-5.9,3.8h-0.2C15.5,72.6,13.1,71.1,12.8,69.1z M9,84.3L9,84.3c0-2.6,3-4.8,6.7-4.8
			h5.8c3.5,0,6.3,2,6.3,4.5v0.1c0,2.4-2.7,4.3-6.1,4.3h-7C11.6,88.5,9,86.6,9,84.3z"/>
	</g>
</g>
</svg>
