<?xml version="1.0" encoding="utf-8"?>
<!-- Generator: Adobe Illustrator 24.1.0, SVG Export Plug-In . SVG Version: 6.00 Build 0)  -->
<svg version="1.1" id="Calque_1" xmlns="http://www.w3.org/2000/svg" xmlns:xlink="http://www.w3.org/1999/xlink" x="0px" y="0px"
	 viewBox="0 0 107.7 107.7" style="enable-background:new 0 0 107.7 107.7;" xml:space="preserve">
<style type="text/css">
	.st0{fill:#355B9B;}
	.st1{fill:none;stroke:#355B9B;stroke-width:4;stroke-linecap:round;stroke-linejoin:round;}
	.st2{enable-background:new    ;}
	.st3{fill:#FF0000;}
</style>
<g>
	<g id="Calque_2_1_">
		<g id="Calque_1-2">
			<path class="st0" d="M44.7,20.8v47.5l-15.6-4.7v11.7l24.6,7.3v-62h-9.1V20.8z M88.3,30.5l0.9-9.5H62.4v40.5L78,58.7l-0.4,8.9
				l-15.1,4.5V83l22-6.7L86.6,47l-15.6,2.5v-19H88.3z"/>
			<path class="st1" d="M14.9,1.8l7.8,94.1l35.4,10.9l35.4-10.9l7.8-94.1H14.9z"/>
		</g>
	</g>
	<g class="st2">
		<path class="st3" d="M10.7,85.4l-4.7-33c0-0.2,0-0.3,0-0.5V41.1c0-2.5,2.8-4.5,6.1-4.5h9.1c3.4,0,6.1,2,6.1,4.5V52
			c0,0.1,0,0.3,0,0.4l-4.4,33c-0.3,2.3-3,4-6.1,4h0C13.7,89.4,11.1,87.6,10.7,85.4z M6.8,102.3v-0.9C6.8,99,9.6,97,13,97h7.6
			c3.4,0,6.1,2,6.1,4.5v0.9c0,2.5-2.8,4.5-6.1,4.5H13C9.6,106.8,6.8,104.8,6.8,102.3z"/>
	</g>
</g>
</svg>
