<svg xmlns="http://www.w3.org/2000/svg" xmlns:xlink="http://www.w3.org/1999/xlink" viewBox="0 0 251.08 45.45"><defs><style>.cls-1{fill:url(#Blanc_Noir);}.cls-2{fill:url(#Dégradé_sans_nom_87);}.cls-3{fill:url(#Dégradé_sans_nom_87-2);}.cls-4{fill:url(#Dégradé_sans_nom_87-3);}.cls-5{fill:url(#Dégradé_sans_nom_87-4);}.cls-6{fill:url(#Dégradé_sans_nom_87-5);}.cls-7{fill:url(#Blanc_Noir-12);}.cls-8{fill:url(#Dégradé_sans_nom_32);}.cls-9{fill:url(#Dégradé_sans_nom_42);}.cls-10{fill:url(#Dégradé_sans_nom_52);}.cls-11{fill:url(#Dégradé_sans_nom_36);}.cls-12{fill:url(#Dégradé_sans_nom_45);}</style><linearGradient id="Blanc_Noir" x1="125.54" y1="45.45" x2="125.54" gradientUnits="userSpaceOnUse"><stop offset="0" stop-color="#fff"/><stop offset="1" stop-color="#1d1d1b"/></linearGradient><linearGradient id="Dégradé_sans_nom_87" x1="192.37" y1="27.25" x2="192.37" y2="17.02" gradientUnits="userSpaceOnUse"><stop offset="0" stop-color="#9e6e08"/><stop offset="0.15" stop-color="#7e6b21"/><stop offset="0.44" stop-color="#48654c"/><stop offset="0.68" stop-color="#21616a"/><stop offset="0.88" stop-color="#095e7d"/><stop offset="1" stop-color="#005d84"/></linearGradient><linearGradient id="Dégradé_sans_nom_87-2" x1="161.41" y1="45.45" x2="161.41" y2="0.34" xlink:href="#Dégradé_sans_nom_87"/><linearGradient id="Dégradé_sans_nom_87-3" x1="140.28" y1="27.36" x2="140.28" y2="16.8" xlink:href="#Dégradé_sans_nom_87"/><linearGradient id="Dégradé_sans_nom_87-4" x1="122.73" y1="20.7" x2="122.73" y2="16.8" xlink:href="#Dégradé_sans_nom_87"/><linearGradient id="Dégradé_sans_nom_87-5" x1="220.94" y1="20.7" x2="220.94" y2="16.8" xlink:href="#Dégradé_sans_nom_87"/><linearGradient id="Blanc_Noir-12" x1="99.63" y1="35.66" x2="99.63" y2="0.34" xlink:href="#Blanc_Noir"/><linearGradient id="Dégradé_sans_nom_32" x1="15.84" y1="43.18" x2="15.84" y2="2.61" gradientUnits="userSpaceOnUse"><stop offset="0" stop-color="#36a9e1"/><stop offset="1" stop-color="#005d84"/></linearGradient><linearGradient id="Dégradé_sans_nom_42" x1="33.7" y1="35.61" x2="33.7" gradientUnits="userSpaceOnUse"><stop offset="0" stop-color="#00000e"/><stop offset="0" stop-color="#00000f"/><stop offset="0.06" stop-color="#00192e"/><stop offset="0.12" stop-color="#002e49"/><stop offset="0.19" stop-color="#00405f"/><stop offset="0.27" stop-color="#004d70"/><stop offset="0.37" stop-color="#00567b"/><stop offset="0.51" stop-color="#005c82"/><stop offset="0.9" stop-color="#005d84"/></linearGradient><linearGradient id="Dégradé_sans_nom_52" x1="45.57" y1="15.23" x2="45.57" y2="2.61" gradientUnits="userSpaceOnUse"><stop offset="0" stop-color="#2286ad"/><stop offset="0.01" stop-color="#2084ab"/><stop offset="0.14" stop-color="#12739a"/><stop offset="0.29" stop-color="#08668d"/><stop offset="0.5" stop-color="#025f86"/><stop offset="1" stop-color="#005d84"/></linearGradient><linearGradient id="Dégradé_sans_nom_36" x1="48.87" y1="43.18" x2="48.87" y2="7.03" gradientUnits="userSpaceOnUse"><stop offset="0" stop-color="#36a9e1"/><stop offset="0.01" stop-color="#34a6de"/><stop offset="0.09" stop-color="#2490c2"/><stop offset="0.18" stop-color="#177dab"/><stop offset="0.29" stop-color="#0d6f9a"/><stop offset="0.42" stop-color="#05658d"/><stop offset="0.59" stop-color="#015f86"/><stop offset="1" stop-color="#005d84"/></linearGradient><linearGradient id="Dégradé_sans_nom_45" x1="40.16" y1="15.23" x2="40.16" y2="10.99" gradientUnits="userSpaceOnUse"><stop offset="0" stop-color="#3a6f9b"/><stop offset="0.09" stop-color="#276994"/><stop offset="0.21" stop-color="#16648d"/><stop offset="0.35" stop-color="#096088"/><stop offset="0.54" stop-color="#025e85"/><stop offset="1" stop-color="#005d84"/></linearGradient></defs><title>Fichier 2</title><g id="Calque_2" data-name="Calque 2"><g id="Calque_1-2" data-name="Calque 1"><g id="Logo_Ap" data-name="Logo Ap"><g id="Web_store" data-name="Web store"><path class="cls-1" d="M192.38,17a3.3,3.3,0,0,0-2.66,1.32,5.82,5.82,0,0,0-1.08,3.79,5.85,5.85,0,0,0,1.08,3.8,3.33,3.33,0,0,0,5.31,0,5.91,5.91,0,0,0,1.07-3.83A5.77,5.77,0,0,0,195,18.34,3.29,3.29,0,0,0,192.38,17Z"/><path class="cls-1" d="M230.15.34H71.74V24.4A21.05,21.05,0,0,0,92.79,45.45H251.08V21.27A20.93,20.93,0,0,0,230.15.34ZM120.62,26.46A3,3,0,0,0,123,27.55a2.31,2.31,0,0,0,1.59-.57,3.46,3.46,0,0,0,1-1.82l4,.74a7.25,7.25,0,0,1-2.45,3.68,6.8,6.8,0,0,1-4.2,1.26A6.59,6.59,0,0,1,117,28a10.13,10.13,0,0,1-1.51-5.74,9.76,9.76,0,0,1,2-6.49,6.32,6.32,0,0,1,5-2.35,6.52,6.52,0,0,1,5.38,2.46c1.31,1.64,1.94,4.14,1.89,7.52H119.64A4.71,4.71,0,0,0,120.62,26.46Zm25.32,2.08a5.64,5.64,0,0,1-4.52,2.3,5.3,5.3,0,0,1-2.59-.71A6.46,6.46,0,0,1,136.64,28v2.45h-3.75v-23h4v8.29a5.55,5.55,0,0,1,4.43-2.33A5.76,5.76,0,0,1,146,15.63,9.73,9.73,0,0,1,147.8,22,10.25,10.25,0,0,1,145.94,28.54Zm24.39.66a7.36,7.36,0,0,1-5.19,1.64,8,8,0,0,1-4.95-1.38,6.43,6.43,0,0,1-2.38-3.75l4.06-.67a3.28,3.28,0,0,0,1,1.95,3.38,3.38,0,0,0,2.22.67,3.7,3.7,0,0,0,2.35-.63,1.44,1.44,0,0,0,.54-1.18,1.23,1.23,0,0,0-.29-.83,3.08,3.08,0,0,0-1.35-.58q-4.89-1.17-6.2-2.15a4.41,4.41,0,0,1-1.81-3.75,4.81,4.81,0,0,1,1.56-3.64,6.88,6.88,0,0,1,4.86-1.48,7.88,7.88,0,0,1,4.67,1.12,5.77,5.77,0,0,1,2.1,3.29l-3.82.77a2.6,2.6,0,0,0-.92-1.49,3.23,3.23,0,0,0-2-.52,4.12,4.12,0,0,0-2.29.49,1.06,1.06,0,0,0-.46.89,1,1,0,0,0,.4.8A13.89,13.89,0,0,0,166.31,20a10.81,10.81,0,0,1,4.51,2,4.25,4.25,0,0,1,1.26,3.28A5.23,5.23,0,0,1,170.33,29.2Zm9.43,1.64a4.66,4.66,0,0,1-2-.4,2.87,2.87,0,0,1-1.28-1,4.19,4.19,0,0,1-.57-1.72,22.64,22.64,0,0,1-.13-3.11V17.32H174V13.8h1.86V10.49l4.05-2.58V13.8h2.77v3.52h-2.77V24a18.81,18.81,0,0,0,.08,2.38,1.09,1.09,0,0,0,.36.56,1.14,1.14,0,0,0,.69.22,5,5,0,0,0,1.62-.43l.35,3.42A7.47,7.47,0,0,1,179.76,30.84ZM198,28.36a7.26,7.26,0,0,1-5.63,2.48,8.25,8.25,0,0,1-4-1,6.83,6.83,0,0,1-2.9-3,10.9,10.9,0,0,1-1-4.87,9.74,9.74,0,0,1,1-4.26,7.15,7.15,0,0,1,2.81-3.13,7.72,7.72,0,0,1,4.06-1.09,7.32,7.32,0,0,1,5.69,2.46,9,9,0,0,1,2.21,6.21A9,9,0,0,1,198,28.36ZM211.9,18.1a3.38,3.38,0,0,0-1.9-.72,2.11,2.11,0,0,0-1.44.51,3.62,3.62,0,0,0-.93,1.84,28.93,28.93,0,0,0-.34,5.59v5.15h-4V13.8H207v2.37A6.89,6.89,0,0,1,208.74,14a3,3,0,0,1,1.75-.54,4.84,4.84,0,0,1,2.66.83Zm6.93,8.36a3,3,0,0,0,2.33,1.09,2.34,2.34,0,0,0,1.6-.57,3.6,3.6,0,0,0,1-1.82l4,.74a7.19,7.19,0,0,1-2.45,3.68,6.77,6.77,0,0,1-4.19,1.26,6.61,6.61,0,0,1-5.9-2.84,10.13,10.13,0,0,1-1.51-5.74,9.76,9.76,0,0,1,2-6.49,6.32,6.32,0,0,1,5-2.35,6.51,6.51,0,0,1,5.38,2.46C227.41,17.52,228,20,228,23.4H217.85A4.76,4.76,0,0,0,218.83,26.46Z"/><path class="cls-1" d="M140.28,16.8A3,3,0,0,0,137.86,18a6,6,0,0,0-1,3.74,7.61,7.61,0,0,0,.75,3.83,3.16,3.16,0,0,0,2.79,1.76,2.8,2.8,0,0,0,2.28-1.25,6.53,6.53,0,0,0,.94-3.93,7,7,0,0,0-.95-4.12A2.91,2.91,0,0,0,140.28,16.8Z"/><path class="cls-1" d="M122.75,16.8a2.71,2.71,0,0,0-2.19,1.05,4.27,4.27,0,0,0-.85,2.85h6a4.55,4.55,0,0,0-.9-2.91A2.7,2.7,0,0,0,122.75,16.8Z"/><path class="cls-1" d="M221,16.8a2.73,2.73,0,0,0-2.19,1.05,4.33,4.33,0,0,0-.85,2.85H224a4.55,4.55,0,0,0-.91-2.91A2.7,2.7,0,0,0,221,16.8Z"/><path class="cls-1" d="M89.53,35.66,83.76.34h5L92.4,24.6,96.82,6.88h5.81L106.87,25,110.58.34h4.92l-5.88,35.32h-5.18L99.63,9.25l-4.8,26.41Z"/></g><g id="Ap"><path class="cls-1" d="M17.26,2.61h-3a2.78,2.78,0,0,0-2.66,1.94L.1,40.52a2,2,0,0,0,1.95,2.66H6.36L9.11,34l2.06-6.84,4.49-15.06,4.58,15.06L22.39,34l2.9,9.21h4a2.38,2.38,0,0,0,2.26-3.12L19.91,4.53A2.77,2.77,0,0,0,17.26,2.61Z"/><path class="cls-1" d="M65.73,0S49.35,35.63,1.67,35.61L3.45,30S20,29,33.7,22.88,60.24,7.76,65.73,0Z"/><path class="cls-1" d="M42.85,9.47h4.28c2.53-1.85,5.21-4,7.86-6.23l-.1,0q-1.86-.62-8-.61H36.15V15.23c1.69-.13,4-1.2,6.7-2.85Z"/><path class="cls-1" d="M59.67,7.18a.34.34,0,0,0-.5-.08c-1.86,1.52-3.76,3-5.65,4.31l.1.14a6,6,0,0,1,1.07,3.65,6.45,6.45,0,0,1-.76,3.16,4.69,4.69,0,0,1-2.1,2,14.44,14.44,0,0,1-5.3.64H43.2a.35.35,0,0,1-.35-.35V19a.34.34,0,0,0-.51-.29c-3.12,1.84-5.37,3-6,3.38a.35.35,0,0,0-.18.31v18.9a1.9,1.9,0,0,0,1.9,1.9h4.46a.34.34,0,0,0,.34-.34V28.22a.35.35,0,0,1,.35-.34h4a32,32,0,0,0,7-.58,9.07,9.07,0,0,0,3.48-1.93,10.79,10.79,0,0,0,2.82-4,15.69,15.69,0,0,0,1.11-6.28,14.56,14.56,0,0,0-1.93-7.9Z"/><path class="cls-1" d="M36.15,15.23s5.63-.1,8-4.24Z"/></g></g><g id="Logo_Ap-2" data-name="Logo Ap"><g id="Web_store-2" data-name="Web store"><path class="cls-2" d="M192.38,17a3.3,3.3,0,0,0-2.66,1.32,5.82,5.82,0,0,0-1.08,3.79,5.85,5.85,0,0,0,1.08,3.8,3.33,3.33,0,0,0,5.31,0,5.91,5.91,0,0,0,1.07-3.83A5.77,5.77,0,0,0,195,18.34,3.29,3.29,0,0,0,192.38,17Z"/><path class="cls-3" d="M230.15.34H71.74V24.4A21.05,21.05,0,0,0,92.79,45.45H251.08V21.27A20.93,20.93,0,0,0,230.15.34ZM120.62,26.46A3,3,0,0,0,123,27.55a2.31,2.31,0,0,0,1.59-.57,3.46,3.46,0,0,0,1-1.82l4,.74a7.25,7.25,0,0,1-2.45,3.68,6.8,6.8,0,0,1-4.2,1.26A6.59,6.59,0,0,1,117,28a10.13,10.13,0,0,1-1.51-5.74,9.76,9.76,0,0,1,2-6.49,6.32,6.32,0,0,1,5-2.35,6.52,6.52,0,0,1,5.38,2.46c1.31,1.64,1.94,4.14,1.89,7.52H119.64A4.71,4.71,0,0,0,120.62,26.46Zm25.32,2.08a5.64,5.64,0,0,1-4.52,2.3,5.3,5.3,0,0,1-2.59-.71A6.46,6.46,0,0,1,136.64,28v2.45h-3.75v-23h4v8.29a5.55,5.55,0,0,1,4.43-2.33A5.76,5.76,0,0,1,146,15.63,9.73,9.73,0,0,1,147.8,22,10.25,10.25,0,0,1,145.94,28.54Zm24.39.66a7.36,7.36,0,0,1-5.19,1.64,8,8,0,0,1-4.95-1.38,6.43,6.43,0,0,1-2.38-3.75l4.06-.67a3.28,3.28,0,0,0,1,1.95,3.38,3.38,0,0,0,2.22.67,3.7,3.7,0,0,0,2.35-.63,1.44,1.44,0,0,0,.54-1.18,1.23,1.23,0,0,0-.29-.83,3.08,3.08,0,0,0-1.35-.58q-4.89-1.17-6.2-2.15a4.41,4.41,0,0,1-1.81-3.75,4.81,4.81,0,0,1,1.56-3.64,6.88,6.88,0,0,1,4.86-1.48,7.88,7.88,0,0,1,4.67,1.12,5.77,5.77,0,0,1,2.1,3.29l-3.82.77a2.6,2.6,0,0,0-.92-1.49,3.23,3.23,0,0,0-2-.52,4.12,4.12,0,0,0-2.29.49,1.06,1.06,0,0,0-.46.89,1,1,0,0,0,.4.8A13.89,13.89,0,0,0,166.31,20a10.81,10.81,0,0,1,4.51,2,4.25,4.25,0,0,1,1.26,3.28A5.23,5.23,0,0,1,170.33,29.2Zm9.43,1.64a4.66,4.66,0,0,1-2-.4,2.87,2.87,0,0,1-1.28-1,4.19,4.19,0,0,1-.57-1.72,22.64,22.64,0,0,1-.13-3.11V17.32H174V13.8h1.86V10.49l4.05-2.58V13.8h2.77v3.52h-2.77V24a18.81,18.81,0,0,0,.08,2.38,1.09,1.09,0,0,0,.36.56,1.14,1.14,0,0,0,.69.22,5,5,0,0,0,1.62-.43l.35,3.42A7.47,7.47,0,0,1,179.76,30.84ZM198,28.36a7.26,7.26,0,0,1-5.63,2.48,8.25,8.25,0,0,1-4-1,6.83,6.83,0,0,1-2.9-3,10.9,10.9,0,0,1-1-4.87,9.74,9.74,0,0,1,1-4.26,7.15,7.15,0,0,1,2.81-3.13,7.72,7.72,0,0,1,4.06-1.09,7.32,7.32,0,0,1,5.69,2.46,9,9,0,0,1,2.21,6.21A9,9,0,0,1,198,28.36ZM211.9,18.1a3.38,3.38,0,0,0-1.9-.72,2.11,2.11,0,0,0-1.44.51,3.62,3.62,0,0,0-.93,1.84,28.93,28.93,0,0,0-.34,5.59v5.15h-4V13.8H207v2.37A6.89,6.89,0,0,1,208.74,14a3,3,0,0,1,1.75-.54,4.84,4.84,0,0,1,2.66.83Zm6.93,8.36a3,3,0,0,0,2.33,1.09,2.34,2.34,0,0,0,1.6-.57,3.6,3.6,0,0,0,1-1.82l4,.74a7.19,7.19,0,0,1-2.45,3.68,6.77,6.77,0,0,1-4.19,1.26,6.61,6.61,0,0,1-5.9-2.84,10.13,10.13,0,0,1-1.51-5.74,9.76,9.76,0,0,1,2-6.49,6.32,6.32,0,0,1,5-2.35,6.51,6.51,0,0,1,5.38,2.46C227.41,17.52,228,20,228,23.4H217.85A4.76,4.76,0,0,0,218.83,26.46Z"/><path class="cls-4" d="M140.28,16.8A3,3,0,0,0,137.86,18a6,6,0,0,0-1,3.74,7.61,7.61,0,0,0,.75,3.83,3.16,3.16,0,0,0,2.79,1.76,2.8,2.8,0,0,0,2.28-1.25,6.53,6.53,0,0,0,.94-3.93,7,7,0,0,0-.95-4.12A2.91,2.91,0,0,0,140.28,16.8Z"/><path class="cls-5" d="M122.75,16.8a2.71,2.71,0,0,0-2.19,1.05,4.27,4.27,0,0,0-.85,2.85h6a4.55,4.55,0,0,0-.9-2.91A2.7,2.7,0,0,0,122.75,16.8Z"/><path class="cls-6" d="M221,16.8a2.73,2.73,0,0,0-2.19,1.05,4.33,4.33,0,0,0-.85,2.85H224a4.55,4.55,0,0,0-.91-2.91A2.7,2.7,0,0,0,221,16.8Z"/><path class="cls-7" d="M89.53,35.66,83.76.34h5L92.4,24.6,96.82,6.88h5.81L106.87,25,110.58.34h4.92l-5.88,35.32h-5.18L99.63,9.25l-4.8,26.41Z"/></g><g id="Ap-2" data-name="Ap"><path class="cls-8" d="M17.26,2.61h-3a2.78,2.78,0,0,0-2.66,1.94L.1,40.52a2,2,0,0,0,1.95,2.66H6.36L9.11,34l2.06-6.84,4.49-15.06,4.58,15.06L22.39,34l2.9,9.21h4a2.38,2.38,0,0,0,2.26-3.12L19.91,4.53A2.77,2.77,0,0,0,17.26,2.61Z"/><path class="cls-9" d="M65.73,0S49.35,35.63,1.67,35.61L3.45,30S20,29,33.7,22.88,60.24,7.76,65.73,0Z"/><path class="cls-10" d="M42.85,9.47h4.28c2.53-1.85,5.21-4,7.86-6.23l-.1,0q-1.86-.62-8-.61H36.15V15.23c1.69-.13,4-1.2,6.7-2.85Z"/><path class="cls-11" d="M59.67,7.18a.34.34,0,0,0-.5-.08c-1.86,1.52-3.76,3-5.65,4.31l.1.14a6,6,0,0,1,1.07,3.65,6.45,6.45,0,0,1-.76,3.16,4.69,4.69,0,0,1-2.1,2,14.44,14.44,0,0,1-5.3.64H43.2a.35.35,0,0,1-.35-.35V19a.34.34,0,0,0-.51-.29c-3.12,1.84-5.37,3-6,3.38a.35.35,0,0,0-.18.31v18.9a1.9,1.9,0,0,0,1.9,1.9h4.46a.34.34,0,0,0,.34-.34V28.22a.35.35,0,0,1,.35-.34h4a32,32,0,0,0,7-.58,9.07,9.07,0,0,0,3.48-1.93,10.79,10.79,0,0,0,2.82-4,15.69,15.69,0,0,0,1.11-6.28,14.56,14.56,0,0,0-1.93-7.9Z"/><path class="cls-12" d="M36.15,15.23s5.63-.1,8-4.24Z"/></g></g></g></g></svg>