<svg xmlns="http://www.w3.org/2000/svg" viewBox="0 0 211.06 273.95"><defs><style>.cls-1{fill:#fff;}</style></defs><title>note</title><g id="Calque_2" data-name="Calque 2"><g id="Calque_1-2" data-name="Calque 1"><path d="M183,101.48h0l0,0ZM94.5,186.16s0,0,0,0l.05-.05,0,0ZM208.91,76.57c-1.8-2-3.66-3.9-5.52-5.83-3.6-3.75-4.89-3.8-8.69-.29-1.41,1.31-2.76,2.68-4.17,4-2.05,1.9-4.12,3.78-6.61,6.06V77.25c0-11.72.07-23.44,0-35.15,0-3.51-.62-6.89-3.75-9.35-2.67-2.1-5.68-2.24-8.77-2.25-18.08,0-36.16-.15-54.23.08-4.58.06-7.77-2.29-11.44-4.17,4.77-6.31,3.77-16.61-1.87-21.82a17.69,17.69,0,0,0-23.18-.52c-6.19,5.37-7.38,15.05-2.54,22.33-4,2.37-7.76,4.28-12.65,4.21-18.57-.29-37.16-.12-55.73-.12C5,30.49,1.57,33,.53,37.7a27.77,27.77,0,0,0-.49,6Q0,152,0,260.33a16.94,16.94,0,0,0,.28,4.74,13.41,13.41,0,0,0,2.62,5.46A11.59,11.59,0,0,0,11.74,274q80-.1,159.93-.07a13.43,13.43,0,0,0,3.48-.29c4.81-1.37,7.36-3,8.18-7.06a27.88,27.88,0,0,0,.57-5.46q0-75.19,0-150.38a5.55,5.55,0,0,1,1.94-4.55c7.64-7,15.19-14.14,22.75-21.24C211.79,81.89,211.87,79.83,208.91,76.57Zm-15.54,3c1.22.56,2.35,1.3,3.51,2,0,.31-.07.63-.11.94-.7.26-1.73.93-2.05.69a17.62,17.62,0,0,1-2.53-2.83C192.59,80.09,193.15,79.49,193.37,79.59ZM176.6,92.37l1.9,2.33c-1.86,1.73-3.66,3.32-5.37,5s-3.18,3.37-4.78,5.05c-1,1.1-2.19,2.13-3.19,3.27-1.91,2.19-3.64,4.54-5.65,6.61a39.83,39.83,0,0,1-4.17,3c-1.62,1.27-3.18,2.63-4.73,4-.24.22-.46.46-.68.7s-.42.5-.64.74h0c-1.41,1.31-2.9,2.55-4.2,4a19.75,19.75,0,0,0-2.52,3.56c-.75,1.33-1.54,2.38-3.27,2-1.59,1.36-3.44,2.54-4.68,4.17a12.4,12.4,0,0,1-4.7,4.16c-1.17.55-1.91,2-2.84,3.06s-1.93,2.16-2.86,3.27c-.61.74-1.16,1.53-1.75,2.3l.07,0-.08,0s0,0,0,0c-.93.33-2.12.44-2.72,1.09-4.45,4.83-9.47,9-14.36,13.39-8,7.15-15.85,14.51-23.66,21.89-2.22,2.09-4,4.67-6.18,6.8-2,1.94-4.34,3.54-6.48,5.34-1.18,1-2.28,2.1-3.4,3.14l-2.31-2.93ZM69,210c-2.42,1.12-5.17,2.39-7.93,3.65-2,.93-4.08,1.89-6.16,2.72a4.55,4.55,0,0,1-1.82-.08,4.64,4.64,0,0,1,.19-1.57c2.58-4.65,5.22-9.27,7.94-14.08,2.94,1.31,2.14,4,3,6.08C66.22,206.93,68.74,206.51,69,210ZM71,47.67c2.26-.44,3.35-1.37,3.13-3.84s.1-4.86-.11-7.27.53-4.05,3-5a79.89,79.89,0,0,0,7.21-3.63c-3.66-4.09-6.29-8.46-4.91-13.79a15.14,15.14,0,0,1,3.92-7c4.67-4.33,12.75-4.23,17.51,0,3.1,2.73,4.84,6.56,4.08,10.54-.69,3.62-2.72,7-4.29,10.79,2.13,1.08,4.74,2.54,7.47,3.74a2.94,2.94,0,0,1,2,3.27c-.11,2.93.11,5.87,0,8.79-.1,1.94.5,2.75,2.46,3.17,9.71,2.06,19.4,4.2,29.06,6.5a19.29,19.29,0,0,1,6.1,2.75c1.24.83,1.95,2.45,2.9,3.71l-.64.63H34.12c-.09-2.85,1-4.65,4.49-5.74,4.92-1.54,10-2.69,15-3.85Q62.27,49.37,71,47.67Zm79.3,15.71V70H33.42V63.38Zm18.48,190.48H15.13V50.27H39.34c-1.82,1.21-3.8,2.4-5.64,3.76C31,56,30,58.94,29.86,62.12c-.15,3.75,0,7.52,0,11.45H153.73c0-4.58.36-9.19-.1-13.71s-4.12-6.81-7.84-8.73a24,24,0,0,0-2.28-.87h25.26c0,1,.13,1.86.13,2.75,0,13.14,0,26.28-.06,39.42A5.59,5.59,0,0,1,167.3,96q-31.71,29.85-63.55,59.56c-14.6,13.65-29.27,27.24-43.78,41a27.05,27.05,0,0,0-4.55,6.51q-4.8,8.52-9.27,17.22a3.65,3.65,0,0,0,0,3.08c.29.48,2,.5,2.87.13q11.2-5,22.27-10.35a15.49,15.49,0,0,0,3.48-2.83c9.15-8.44,18.31-16.87,27.39-25.38,8.54-8,17-16.09,25.48-24.09q19.75-18.54,39.58-37c.41-.38.84-.73,1.56-1.35Zm14.45-152.55-.1.11h0l0,0h0c-2.09,1.76-4.27,3.43-6.23,5.33-5,4.9-10,9.87-14.93,14.87a22.16,22.16,0,0,0-2.25,3.26l-.11,0-.48-.54c-2.4,2.25-4.81,4.48-7.19,6.75-2.87,2.74-5.71,5.51-8.56,8.29-.4.39-.67,1-1.14,1.26a15.86,15.86,0,0,0-7.23,7.09c-.1.21-.58.21-.8.41-.73.68-1.42,1.4-2.44,2.42a15.08,15.08,0,0,0-3,1.85c-6.92,6.49-13.75,13.08-20.66,19.58-2.3,2.17-4.89,4-7.08,6.29-2,2.08-3.67,4.52-5.48,6.8h0l-1,1h0l-1.44.22.11-.11-4.57,4.11,0,0,.07,0,.06,0c-1.65,1.37-3.37,2.68-5,4.1-3.34,3-6.63,6-9.93,9.07a4.88,4.88,0,0,0-.78,1c-1.75,2.81-1.75,2.81-4.51.72-.18-.14-.34-.31-.63-.58L182,97.75C182.47,99.44,184.81,99.72,183.21,101.31Zm3.65-1.44L178,90.42c1.7-.33,6,3.35,9,7.26a6.32,6.32,0,0,1,.6,1.81Zm3-2.46-8.48-9.06,4.09-4.73,9.21,9Zm6.34-6.26-9.12-9.64c1.22,0,2-.16,2.35.14q3.69,3.72,7.18,7.61c.34.38.26,1.15.37,1.73Zm7.22-8.65-.62-.3c.46-1,.92-2,1.37-3l-.65-.26c-2.72,2.78-6.15,2.12-8.47-1.64l0,0-.06,0-1.52-.59a2.44,2.44,0,0,0,0-.27l1.84-.71.09,0,1.09.17h.06v0c0-.6.06-1.19.08-1.79l.09-.23.69.46.14.1s0,0,0-.06l0,.07h0c.12.66.22,1.32.33,2a6.94,6.94,0,0,0,2.15.17c1.87-.46,4.77,1.15,4.77,3C204.82,80.48,203.93,81.49,203.45,82.5Z"/><path class="cls-1" d="M168.76,122.5V253.87H15.13V50.27H39.34c-1.82,1.21-3.8,2.4-5.64,3.76C31,56,30,58.94,29.85,62.12c-.14,3.76,0,7.52,0,11.45H153.73c0-4.58.36-9.19-.11-13.71s-4.11-6.81-7.83-8.73a24,24,0,0,0-2.28-.87h25.26c0,1,.12,1.86.13,2.75,0,13.14,0,26.28-.06,39.42A5.57,5.57,0,0,1,167.3,96q-31.71,29.85-63.55,59.56c-14.6,13.65-29.27,27.24-43.79,41a27.5,27.5,0,0,0-4.54,6.51q-4.8,8.52-9.27,17.22a3.65,3.65,0,0,0,0,3.08c.29.48,2,.5,2.87.13q11.2-5,22.27-10.34a15.82,15.82,0,0,0,3.48-2.84Q88.48,197.68,102.14,185c8.54-8,17-16.09,25.48-24.09q19.75-18.56,39.58-37C167.6,123.47,168,123.12,168.76,122.5Z"/><path class="cls-1" d="M147.55,56.61a19.29,19.29,0,0,0-6.1-2.75c-9.66-2.3-19.35-4.44-29.06-6.5-2-.42-2.56-1.23-2.46-3.17.15-2.92-.07-5.86,0-8.79a2.94,2.94,0,0,0-2-3.27c-2.73-1.2-5.34-2.66-7.47-3.74,1.57-3.8,3.6-7.17,4.29-10.79.76-4-1-7.81-4.08-10.54-4.76-4.2-12.84-4.3-17.51,0a15.14,15.14,0,0,0-3.92,7.05c-1.38,5.33,1.25,9.7,4.91,13.79A79.89,79.89,0,0,1,77,31.56c-2.45.95-3.2,2.49-3,5s-.1,4.86.11,7.27-.87,3.4-3.13,3.84q-8.72,1.69-17.37,3.69c-5,1.16-10.08,2.31-15,3.85C35.12,56.3,34,58.1,34.12,61H149.81l.64-.63C149.5,59.06,148.79,57.44,147.55,56.61ZM92,25.83c-5,.35-9.33-5.18-9.23-9,.13-4.73,4.59-9.15,9.27-9.14,4.06,0,9.72,4.59,8.83,9.33C100.82,21.85,96.86,25.49,92,25.83Z"/><path class="cls-1" d="M33.42,70V63.38H150.28V70Z"/><path class="cls-1" d="M149.3,123.12c-1.41,1.31-2.9,2.55-4.2,4a18.62,18.62,0,0,0-2.52,3.56c-.76,1.33-1.54,2.37-3.28,2l.1-.08c-1.62,1.4-3.51,2.59-4.77,4.25a12.4,12.4,0,0,1-4.7,4.16c-1.17.55-1.91,2-2.84,3.06s-1.93,2.16-2.86,3.27c-.62.75-1.18,1.54-1.76,2.32l.08,0c-.94.36-2.18.44-2.79,1.11-4.45,4.83-9.47,9-14.36,13.39-8,7.15-15.85,14.51-23.66,21.89-2.22,2.1-4,4.67-6.18,6.8-2,1.94-4.34,3.54-6.48,5.35-1.19,1-2.28,2.09-3.4,3.13l-2.31-2.93L176.6,92.37l1.9,2.34c-1.86,1.72-3.67,3.31-5.37,5s-3.18,3.37-4.78,5.05c-1,1.1-2.19,2.13-3.19,3.27-1.91,2.19-3.64,4.54-5.66,6.61-1.18,1.22-2.81,2-4.16,3-1.62,1.28-3.18,2.63-4.74,4a17.92,17.92,0,0,0-1.31,1.43Z"/><path class="cls-1" d="M183.1,101.42c-2.1,1.79-4.32,3.48-6.3,5.41-5,4.89-10,9.86-14.93,14.86a22.16,22.16,0,0,0-2.25,3.26l-.53-.51H159c-2.4,2.25-4.82,4.48-7.19,6.75-2.87,2.74-5.71,5.52-8.56,8.29-.41.4-.67,1-1.14,1.26a15.86,15.86,0,0,0-7.23,7.09c-.11.21-.59.21-.8.41-.73.68-1.42,1.4-2.44,2.42a15.58,15.58,0,0,0-3,1.85c-6.93,6.49-13.75,13.08-20.66,19.58-2.3,2.17-4.9,4-7.08,6.29a86.31,86.31,0,0,0-5.48,6.81l.09-.08-1.11,1.08.08-.07-1.45.22.11-.11-4.59,4.13.15-.08c-1.67,1.37-3.38,2.68-5,4.12-3.34,3-6.63,6-9.93,9.06a4.88,4.88,0,0,0-.78,1c-1.75,2.81-1.75,2.81-4.51.72-.18-.14-.35-.31-.63-.58L182,97.75c.49,1.75,3,2,1,3.74Z"/><path class="cls-1" d="M61.26,200.65c2.94,1.31,2.14,4,3,6.08,2,.2,4.52-.22,4.82,3.28-2.42,1.12-5.17,2.39-7.93,3.65-2,.93-4.08,1.89-6.16,2.72a4.54,4.54,0,0,1-1.82-.08,4.19,4.19,0,0,1,.19-1.57C55.9,210.08,58.54,205.46,61.26,200.65Z"/><path class="cls-1" d="M189.89,97.41l-8.48-9.06,4.09-4.73,9.21,9Z"/><path class="cls-1" d="M197.9,76.27a6.94,6.94,0,0,0,2.15.17c1.87-.46,4.77,1.15,4.77,3,0,1-.89,2-1.37,3l-.62-.3,1.37-3-.65-.26c-2.73,2.79-6.18,2.12-8.49-1.67l-.07.07,1.6-.56-.09.06,1.34-.54Z"/><path class="cls-1" d="M196.23,91.15l-9.12-9.64c1.22,0,2-.16,2.35.15q3.69,3.7,7.18,7.61c.34.38.26,1.14.37,1.72Z"/><path class="cls-1" d="M178,90.42c1.7-.33,6,3.35,9,7.26a6,6,0,0,1,.59,1.81l-.73.39Z"/><path class="cls-1" d="M196.77,82.51c-.7.26-1.73.94-2.05.69a17.62,17.62,0,0,1-2.53-2.83c.4-.27,1-.88,1.18-.78,1.22.57,2.35,1.3,3.51,2Z"/><path class="cls-1" d="M197.9,76.27h-.06l-1.34-.55.07.07c0-.61.06-1.22.08-1.83l.91.27C197.67,74.91,197.79,75.59,197.9,76.27Z"/><path class="cls-1" d="M193.49,76.36l1.92-.75-.42.71,0-.11v.61l0-.08v.57l.07-.07-1.58-.61.16,0Z"/><path class="cls-1" d="M195.35,75.6l1.22.19-.07-.07v1.09l.09-.06H195l0,.08v-.61l0,.11Z"/><path d="M197.56,74.23l-.91-.27.09-.23.85.57Z"/><path class="cls-1" d="M197.59,74.3l-.85-.57Z"/><path d="M195.35,75.6l-.36.72.42-.71Z"/><path class="cls-1" d="M183.1,101.42l-.07.07Z"/><path d="M193.49,76.36l.15.23-.16,0C193.48,76.54,193.49,76.45,193.49,76.36Z"/><path class="cls-1" d="M149.3,123.12h0Z"/><path class="cls-1" d="M159,124.44h.06l.42.54Z"/><path d="M159.51,125l-.42-.54.53.51Z"/><path class="cls-1" d="M139.4,132.55l-.1.08Z"/><path d="M122.55,149.57l-.08,0Z"/><path d="M95.58,185.11l-.09.08Z"/><path d="M94.55,186.12l-.08.07Z"/><path class="cls-1" d="M93.21,186.23l-.11.11Z"/><path class="cls-1" d="M88.77,190.28l-.15.08Z"/><path d="M92,7.65c-4.68,0-9.14,4.41-9.27,9.14-.1,3.86,4.23,9.39,9.23,9s8.87-4,8.87-8.85C101.71,12.24,96.05,7.65,92,7.65Zm0,15.63a6.64,6.64,0,0,1-6.47-6.53A6.56,6.56,0,0,1,92,10.47a6.63,6.63,0,0,1,6.33,6.4A6.62,6.62,0,0,1,92,23.28Z"/><path d="M196.5,76.81V75.72l1.34.55Z"/><path d="M195,76.74h1.6l-1.6.56Z"/><path d="M195,76.21v0Z"/><path class="cls-1" d="M98.32,16.87a6.4,6.4,0,1,1-12.8-.12A6.55,6.55,0,0,1,92,10.47,6.63,6.63,0,0,1,98.32,16.87Z"/></g></g></svg>