<?xml version="1.0" encoding="utf-8"?>
<!-- Generator: Adobe Illustrator 24.1.0, SVG Export Plug-In . SVG Version: 6.00 Build 0)  -->
<svg version="1.1" id="Calque_1" xmlns="http://www.w3.org/2000/svg" xmlns:xlink="http://www.w3.org/1999/xlink" x="0px" y="0px"
	 viewBox="0 0 107.7 93.5" style="enable-background:new 0 0 107.7 93.5;" xml:space="preserve">
<style type="text/css">
	.st0{fill:url(#SVGID_1_);}
	.st1{fill:url(#SVGID_2_);}
	.st2{fill:url(#SVGID_3_);}
	.st3{fill:url(#SVGID_4_);}
	.st4{fill:url(#SVGID_5_);}
	.st5{fill:url(#SVGID_6_);}
	.st6{fill:url(#SVGID_7_);}
	.st7{fill:url(#SVGID_8_);}
	.st8{fill:url(#SVGID_9_);}
	.st9{fill:url(#SVGID_10_);}
	.st10{fill:url(#SVGID_11_);}
	.st11{fill:url(#SVGID_12_);}
	.st12{fill:url(#SVGID_13_);}
	.st13{fill:url(#SVGID_14_);}
	.st14{fill:url(#SVGID_15_);}
	.st15{fill:url(#SVGID_16_);}
	.st16{fill:url(#SVGID_17_);}
	.st17{fill:url(#SVGID_18_);}
	.st18{fill:url(#SVGID_19_);}
	.st19{fill:url(#SVGID_20_);}
	.st20{fill:url(#SVGID_21_);}
	.st21{fill:url(#SVGID_22_);}
	.st22{fill:url(#SVGID_23_);}
	.st23{fill:url(#SVGID_24_);}
	.st24{fill:url(#SVGID_25_);}
	.st25{fill:url(#SVGID_26_);}
	.st26{fill:url(#SVGID_27_);}
	.st27{fill:url(#SVGID_28_);}
	.st28{fill:url(#SVGID_29_);}
	.st29{fill:url(#SVGID_30_);}
	.st30{fill:url(#SVGID_31_);}
	.st31{fill:url(#SVGID_32_);}
	.st32{fill:url(#SVGID_33_);}
	.st33{fill:url(#SVGID_34_);}
	.st34{fill:url(#SVGID_35_);}
	.st35{fill:url(#SVGID_36_);}
	.st36{fill:url(#SVGID_37_);}
	.st37{fill:#FFFFFF;}
	.st38{fill:#7D4C98;}
	.st39{fill:#3C65AE;}
	.st40{fill:#734B98;}
	.st41{fill:#744B98;}
	.st42{fill:#3D60AA;}
	.st43{fill:#3E60AA;}
	.st44{fill:#4C55A1;}
	.st45{fill:#55509D;}
	.st46{fill:#694B99;}
	.st47{fill:#684B99;}
	.st48{fill:#4B56A2;}
	.st49{fill:#5F4D9B;}
	.st50{fill:#52529F;}
	.st51{fill:#574F9D;}
	.st52{fill:#5E4D9B;}
	.st53{fill:#455BA6;}
	.st54{fill:#445BA6;}
	.st55{fill:#C0B2D8;}
	.st56{fill:#C7B5D9;}
	.st57{fill:#8FC1E9;}
	.st58{fill:#D1BEDD;}
	.st59{fill:#9FC8EC;}
	.st60{fill:#A7B7DF;}
	.st61{fill:#A0B9E1;}
	.st62{fill:#C6C4E4;}
	.st63{fill:#9DB9E2;}
	.st64{fill:#83BFEA;}
	.st65{fill:#90BCE6;}
	.st66{fill:#EDEFF9;}
	.st67{enable-background:new    ;}
	.st68{fill:#FF0000;}
</style>
<g>
	<g id="Calque_2_1_">
		<g id="Calque_1-2">
			
				<linearGradient id="SVGID_1_" gradientUnits="userSpaceOnUse" x1="43.9985" y1="463.8739" x2="43.9985" y2="372.356" gradientTransform="matrix(1 0 0 1 0 -371.3134)">
				<stop  offset="0" style="stop-color:#FFFFFF"/>
				<stop  offset="1" style="stop-color:#1D1D1B"/>
			</linearGradient>
			<path class="st0" d="M49,47.9c1.4,1.4,1.5,3.7,0.1,5.3L49,53.3c-0.1,1-0.6,2.1-1.7,2.4c-2.6,1.4-5.7,1.5-8.4,0.4
				C38,55.8,37.7,54.7,38,54c0-0.1,0.1-0.3,0.3-0.4c1.8-2.4,4.6-1.2,6.9-1.7c0.3-3-3-2.2-4-3.7c-1.3,0.1-2.3-0.8-2.4-1.9
				c0-0.3,0-0.4,0-0.6c-1.4-5.7,0.4-8.9,5-8.7c1.5,0,3.1,0.3,3.6,1.9c0.5,1.7-0.8,2.4-2.1,2.7c-2.6,0.4-3.1,1.8-2.4,4
				C45.2,45.2,47.7,45.2,49,47.9z"/>
			
				<linearGradient id="SVGID_2_" gradientUnits="userSpaceOnUse" x1="59.173" y1="463.8739" x2="59.173" y2="372.356" gradientTransform="matrix(1 0 0 1 0 -371.3134)">
				<stop  offset="0" style="stop-color:#FFFFFF"/>
				<stop  offset="1" style="stop-color:#1D1D1B"/>
			</linearGradient>
			<path class="st1" d="M64.4,41.6c0.3-2.3-1.4-4.4-3.6-4.6c-0.1,0-0.3,0-0.5,0c-2.7-0.3-5.7-0.3-6.4,3.3c-1.3,1.2-1,2.7-0.6,4.2
				l0,0c-0.9,9.5,0.9,12.1,9,13.4c1.3,0.1,3.1,0.4,2.6-1.4C63.5,51.5,67.1,46.5,64.4,41.6z M56.8,47.8c-0.1,0.1-0.1,0.3-0.3,0.4l0,0
				c0.3,1.9-0.1,4.9,2.8,4.4c3-0.5,1.9-3.6,2.2-5.7l0,0c-0.1-0.1-0.3-0.4-0.4-0.5c0.1-0.1,0.3-0.3,0.3-0.4c0-1.8,0.4-3.7-1.7-4.8
				c-1.7-0.9-2.6,0.5-3.3,1.8l0,0c0.1,0.1,0.1,0.3,0.3,0.4L56.8,47.8z"/>
			
				<linearGradient id="SVGID_3_" gradientUnits="userSpaceOnUse" x1="76.0973" y1="463.8739" x2="76.0973" y2="372.356" gradientTransform="matrix(1 0 0 1 0 -371.3134)">
				<stop  offset="0" style="stop-color:#FFFFFF"/>
				<stop  offset="1" style="stop-color:#1D1D1B"/>
			</linearGradient>
			<path class="st2" d="M81.5,54.4c0,1.9-1.5,2.2-3,2.4c-5.4,0.9-8.1-2.1-7.8-8.7c0-1.7,0-3.3,0-5c0-0.9,0-1.7,0-2.6
				c-0.1-1.3,0.1-2.6,1.8-2.6c1.7,0,1.8,1.3,1.8,2.6c0,0.9,0,1.7,0,2.6c0,1.7,0,3.3,0,5c-0.3,3.5,1.8,4.1,4.8,4.1
				C80.2,52.2,81.5,52.8,81.5,54.4z"/>
			
				<linearGradient id="SVGID_4_" gradientUnits="userSpaceOnUse" x1="59.0698" y1="463.8611" x2="59.0698" y2="372.4204" gradientTransform="matrix(1 0 0 1 0 -371.3134)">
				<stop  offset="0" style="stop-color:#FFFFFF"/>
				<stop  offset="1" style="stop-color:#1D1D1B"/>
			</linearGradient>
			<path class="st3" d="M102.6,34.2L102.6,34.2c0.5-8.9,1.2-17.9-0.5-26.8C100.5,2.7,96.9,1,92.3,1H25.8c-4.6,0-8.2,1.5-9.8,6.4
				c-1.8,9.3-1,18.5-0.5,27.9l0,0c-0.1,6.9-0.6,13.9-0.4,20.7c0.3,10-1.2,20.1,0.9,30.1c1.5,4.8,5.1,6.3,9.8,6.3
				c22.1,0,44.4,0,66.5,0c4.6,0,8.2-1.5,9.8-6.3C104,68.9,103,51.5,102.6,34.2z M99,79.8c0,7.7-1.3,9-8.7,9c-20.7,0-41.4,0-62.1,0
				c-7.6,0-8.7-1.3-8.7-9c-0.1-14.8-0.1-29.6-0.1-44.4l0,0c0.1,0,0.3-0.1,0.4-0.3c-0.1,0-0.3-0.1-0.4-0.1l0,0c0-7.6,0.1-15,0.1-22.5
				c0-5.3,2.1-7.7,7.6-7.7C48.6,5,70.1,5,91.7,4.8c5.4,0,7.6,2.4,7.6,7.7c0,7.5,0.1,15,0.1,22.5c-0.1,0-0.3,0-0.4,0.1
				c0.1,0.1,0.3,0.1,0.4,0.3C99.1,50.2,99,65,99,79.8z"/>
			
				<linearGradient id="SVGID_5_" gradientUnits="userSpaceOnUse" x1="59.0709" y1="463.8697" x2="59.0709" y2="372.3518" gradientTransform="matrix(1 0 0 1 0 -371.3134)">
				<stop  offset="0" style="stop-color:#FFFFFF"/>
				<stop  offset="1" style="stop-color:#1D1D1B"/>
			</linearGradient>
			<path class="st4" d="M102.1,86.3c-1.5,4.8-5.1,6.3-9.8,6.3c-22.1,0-44.2,0-66.5,0c-4.6,0-8.2-1.5-9.8-6.3c2.1-3.1,0-6.6,0.6-9.8
				V76V65.8v-0.4c0-3.1,0-6.2,0-9.4v-0.4c0-4.1,0-8.2,0-12.2v-0.3V43l0,0c0-1.8,0.1-3.5,0.4-5.3c0.3-0.9,0.6-1.8,1.3-2.6h0.1h0.3
				c0.1,0,0.3,0,0.4,0l0,0c0.1,0,0.3,0,0.4,0.1c-0.1,0.1-0.3,0.1-0.4,0.3l0,0c0,14.8,0.1,29.6,0.1,44.4c0,7.7,1.3,9,8.7,9
				c20.7,0,41.4,0,62.1,0c7.6,0,8.7-1.3,8.9-9c0.1-14.8,0.1-29.6,0.1-44.4c-0.1,0-0.3-0.1-0.4-0.3c0.1,0,0.3-0.1,0.4-0.1h0.3
				l0.3,0.1l0.1,0.1c0.6,0.5,1.2,1.2,1.4,1.9c0.1,0.5,0.3,1.2,0.3,1.7c0,0.1,0,0.1,0,0.1l0,0c0,0.1,0,0.3,0,0.4
				c0.1,2.8,0,5.7,0.1,8.4v0.4c0,2.8,0,5.7,0,8.5v0.5c0,2.7,0,5.4,0,8.1v0.4c0,3.3,0,6.7,0,10l0,0v0.5C102.1,79.7,100,83,102.1,86.3
				z"/>
			
				<linearGradient id="SVGID_6_" gradientUnits="userSpaceOnUse" x1="59.0709" y1="463.8739" x2="59.0709" y2="372.356" gradientTransform="matrix(1 0 0 1 0 -371.3134)">
				<stop  offset="0" style="stop-color:#FFFFFF"/>
				<stop  offset="1" style="stop-color:#1D1D1B"/>
			</linearGradient>
			<path class="st5" d="M101.4,20.1c0,2.8,0,5.7,0,8.5v0.5c0,1.2-0.1,2.2-0.3,3.3c-0.1,1.2-0.8,2.2-1.5,2.8l-0.1,0.1h-0.4
				c-0.1,0-0.3-0.1-0.4-0.3c0.1,0,0.3-0.1,0.4-0.1c0-7.5-0.3-15-0.1-22.5c0-5.3-2.1-7.7-7.6-7.7C69.8,5,48.3,5,26.7,4.8
				c-5.4,0-7.6,2.4-7.6,7.7c0.1,7.5-0.1,15-0.1,22.5l0,0c0.1,0,0.3,0,0.4,0.1c-0.1,0.1-0.3,0.1-0.4,0.3h-0.4l-0.3-0.1
				c-0.6-0.6-1.2-1.4-1.3-2.3c-0.1-0.9-0.3-1.8-0.4-2.7l0,0v-0.4c0-3.6,0-7.1,0-10.7l0,0v-0.8c-0.8-3.6,1.4-7.5-0.6-10.9
				c1.5-4.9,5.1-6.4,9.8-6.4h66.5c4.6,0,8.2,1.7,9.8,6.4c-2.2,3.9,0.1,8-0.5,12v0.6H101.4z"/>
			
				<linearGradient id="SVGID_7_" gradientUnits="userSpaceOnUse" x1="101.4173" y1="463.8739" x2="101.4173" y2="372.356" gradientTransform="matrix(1 0 0 1 0 -371.3134)">
				<stop  offset="0" style="stop-color:#FFFFFF"/>
				<stop  offset="1" style="stop-color:#1D1D1B"/>
			</linearGradient>
			<path class="st6" d="M102.1,86.1c-4.2-2.2-1.7-5.9-2.1-9c1.9-3.6,0.8-7.6,1-11.3v-0.5V39.6c0-0.1,0-0.4,0-0.5c0-0.6,0-1.3,0-1.8
				c0-0.9,0.3-1.8,0.6-2.6l0.9-0.6C103,51.5,104,68.9,102.1,86.1z"/>
			
				<linearGradient id="SVGID_8_" gradientUnits="userSpaceOnUse" x1="16.7021" y1="463.8739" x2="16.7021" y2="372.356" gradientTransform="matrix(1 0 0 1 0 -371.3134)">
				<stop  offset="0" style="stop-color:#FFFFFF"/>
				<stop  offset="1" style="stop-color:#1D1D1B"/>
			</linearGradient>
			<path class="st7" d="M16.1,86.1c-2.1-10-0.8-20.1-0.9-30.1c-0.3-6.9,0.3-13.8,0.4-20.7l0,0l0.9,0.6c0.3,0.5,0.5,1.2,0.5,1.7
				c0.1,1.8,0.3,3.5,0.1,5.3c0,0.1,0,0.4,0,0.5v21.7v0.1v0.5c0.3,3.7-0.9,7.7,1,11.3C17.7,80.2,20.3,84.1,16.1,86.1z"/>
			
				<linearGradient id="SVGID_9_" gradientUnits="userSpaceOnUse" x1="16.6879" y1="463.8739" x2="16.6879" y2="372.356" gradientTransform="matrix(1 0 0 1 0 -371.3134)">
				<stop  offset="0" style="stop-color:#FFFFFF"/>
				<stop  offset="1" style="stop-color:#1D1D1B"/>
			</linearGradient>
			<path class="st8" d="M18.1,17.6c-1.9,3.9-0.8,8.1-1,12.1c0,0.1,0,0.4,0,0.5c0,0.1,0,0.3,0,0.4c-0.1,0.8,0,1.5-0.1,2.3
				c0,1-0.6,1.9-1.5,2.4l0,0c-0.5-9.3-1.3-18.6,0.5-27.9C20.7,10,17.5,14.2,18.1,17.6z"/>
			
				<linearGradient id="SVGID_10_" gradientUnits="userSpaceOnUse" x1="101.4534" y1="463.8739" x2="101.4534" y2="372.356" gradientTransform="matrix(1 0 0 1 0 -371.3134)">
				<stop  offset="0" style="stop-color:#FFFFFF"/>
				<stop  offset="1" style="stop-color:#1D1D1B"/>
			</linearGradient>
			<path class="st9" d="M102.6,34c-0.6-0.4-1.2-1-1.3-1.7c-0.1-0.9-0.3-1.9-0.1-3c0-0.1,0-0.4,0-0.5c0-0.1,0-0.4,0-0.5
				c-0.1-3.2,0.8-6.6-1-9.6c0.6-3.9-2.4-8.4,2.1-11.4C103.8,16.3,103.1,25.2,102.6,34z"/>
			
				<linearGradient id="SVGID_11_" gradientUnits="userSpaceOnUse" x1="43.9985" y1="463.8739" x2="43.9985" y2="372.356" gradientTransform="matrix(1 0 0 1 0 -371.3134)">
				<stop  offset="0" style="stop-color:#FFFFFF"/>
				<stop  offset="1" style="stop-color:#1D1D1B"/>
			</linearGradient>
			<path class="st10" d="M49,47.9c1.4,1.4,1.5,3.7,0.1,5.3L49,53.3c-0.1,1-0.6,2.1-1.7,2.4c-2.6,1.4-5.7,1.5-8.4,0.4
				C38,55.8,37.7,54.7,38,54c0-0.1,0.1-0.3,0.3-0.4c1.8-2.4,4.6-1.2,6.9-1.7c0.3-3-3-2.2-4-3.7c-1.3,0.1-2.3-0.8-2.4-1.9
				c0-0.3,0-0.4,0-0.6c-1.4-5.7,0.4-8.9,5-8.7c1.5,0,3.1,0.3,3.6,1.9c0.5,1.7-0.8,2.4-2.1,2.7c-2.6,0.4-3.1,1.8-2.4,4
				C45.2,45.2,47.7,45.2,49,47.9z"/>
			
				<linearGradient id="SVGID_12_" gradientUnits="userSpaceOnUse" x1="59.173" y1="463.8739" x2="59.173" y2="372.356" gradientTransform="matrix(1 0 0 1 0 -371.3134)">
				<stop  offset="0" style="stop-color:#FFFFFF"/>
				<stop  offset="1" style="stop-color:#1D1D1B"/>
			</linearGradient>
			<path class="st11" d="M64.4,41.6c0.3-2.3-1.4-4.4-3.6-4.6c-0.1,0-0.3,0-0.5,0c-2.7-0.3-5.7-0.3-6.4,3.3c-1.3,1.2-1,2.7-0.6,4.2
				l0,0c-0.9,9.5,0.9,12.1,9,13.4c1.3,0.1,3.1,0.4,2.6-1.4C63.5,51.5,67.1,46.5,64.4,41.6z M56.8,47.8c-0.1,0.1-0.1,0.3-0.3,0.4l0,0
				c0.3,1.9-0.1,4.9,2.8,4.4c3-0.5,1.9-3.6,2.2-5.7l0,0c-0.1-0.1-0.3-0.4-0.4-0.5c0.1-0.1,0.3-0.3,0.3-0.4c0-1.8,0.4-3.7-1.7-4.8
				c-1.7-0.9-2.6,0.5-3.3,1.8l0,0c0.1,0.1,0.1,0.3,0.3,0.4L56.8,47.8z"/>
			
				<linearGradient id="SVGID_13_" gradientUnits="userSpaceOnUse" x1="76.0973" y1="463.8739" x2="76.0973" y2="372.356" gradientTransform="matrix(1 0 0 1 0 -371.3134)">
				<stop  offset="0" style="stop-color:#FFFFFF"/>
				<stop  offset="1" style="stop-color:#1D1D1B"/>
			</linearGradient>
			<path class="st12" d="M81.5,54.4c0,1.9-1.5,2.2-3,2.4c-5.4,0.9-8.1-2.1-7.8-8.7c0-1.7,0-3.3,0-5c0-0.9,0-1.7,0-2.6
				c-0.1-1.3,0.1-2.6,1.8-2.6c1.7,0,1.8,1.3,1.8,2.6c0,0.9,0,1.7,0,2.6c0,1.7,0,3.3,0,5c-0.3,3.5,1.8,4.1,4.8,4.1
				C80.2,52.2,81.5,52.8,81.5,54.4z"/>
			
				<linearGradient id="SVGID_14_" gradientUnits="userSpaceOnUse" x1="59.0709" y1="463.8739" x2="59.0709" y2="372.356" gradientTransform="matrix(1 0 0 1 0 -371.3134)">
				<stop  offset="0" style="stop-color:#FFFFFF"/>
				<stop  offset="1" style="stop-color:#1D1D1B"/>
			</linearGradient>
			<path class="st13" d="M19,35.1L19,35.1v0.3l0,0c0.1,0,0.3-0.1,0.4-0.3C19.3,35.1,19.1,35.1,19,35.1z M98.7,35.1
				c0.1,0.1,0.3,0.1,0.4,0.3v-0.3C99,35.1,98.9,35.1,98.7,35.1L98.7,35.1z"/>
			
				<linearGradient id="SVGID_15_" gradientUnits="userSpaceOnUse" x1="17.0159" y1="463.8739" x2="17.0159" y2="372.356" gradientTransform="matrix(1 0 0 1 0 -371.3134)">
				<stop  offset="0" style="stop-color:#FFFFFF"/>
				<stop  offset="1" style="stop-color:#1D1D1B"/>
			</linearGradient>
			<path class="st14" d="M15.5,35.3l0.5-5c0.4-0.5,1.2-0.6,1.8-0.3c0.1,0.1,0.3,0.1,0.3,0.3c0.1,1.7,0.3,3.3,0.4,5.1L18.1,43
				c-0.4,0.6-1.2,0.8-1.8,0.3c-0.1-0.1-0.3-0.1-0.3-0.3L15.5,35.3z"/>
			
				<linearGradient id="SVGID_16_" gradientUnits="userSpaceOnUse" x1="17.0802" y1="463.8739" x2="17.0802" y2="372.356" gradientTransform="matrix(1 0 0 1 0 -371.3134)">
				<stop  offset="0" style="stop-color:#FFFFFF"/>
				<stop  offset="1" style="stop-color:#1D1D1B"/>
			</linearGradient>
			<path class="st15" d="M16.1,43h2.1c0,4.2,0,8.5,0,12.7c-0.4,0.5-1.3,0.6-1.8,0.3c-0.1-0.1-0.1-0.1-0.3-0.3L16.1,43z"/>
			
				<linearGradient id="SVGID_17_" gradientUnits="userSpaceOnUse" x1="16.8267" y1="463.8739" x2="16.8267" y2="372.356" gradientTransform="matrix(1 0 0 1 0 -371.3134)">
				<stop  offset="0" style="stop-color:#FFFFFF"/>
				<stop  offset="1" style="stop-color:#1D1D1B"/>
			</linearGradient>
			<path class="st16" d="M18.1,77.3c-4.8-3.1-1.3-7.6-2.1-11.4c0.4-0.5,1.3-0.6,1.8-0.3c0.1,0.1,0.1,0.1,0.3,0.3L18.1,77.3z"/>
			
				<linearGradient id="SVGID_18_" gradientUnits="userSpaceOnUse" x1="101.3151" y1="463.8739" x2="101.3151" y2="372.356" gradientTransform="matrix(1 0 0 1 0 -371.3134)">
				<stop  offset="0" style="stop-color:#FFFFFF"/>
				<stop  offset="1" style="stop-color:#1D1D1B"/>
			</linearGradient>
			<path class="st17" d="M102.1,65.8c-0.8,3.7,2.7,8.4-2.1,11.4V65.8c0.4-0.5,1.3-0.6,1.8-0.3C102,65.7,102,65.7,102.1,65.8z"/>
			
				<linearGradient id="SVGID_19_" gradientUnits="userSpaceOnUse" x1="101.1259" y1="463.8739" x2="101.1259" y2="372.356" gradientTransform="matrix(1 0 0 1 0 -371.3134)">
				<stop  offset="0" style="stop-color:#FFFFFF"/>
				<stop  offset="1" style="stop-color:#1D1D1B"/>
			</linearGradient>
			<path class="st18" d="M102.6,34L102.6,34l-0.5,5.1c-0.1,0.3-0.4,0.4-0.6,0.4c-0.1,0-0.3,0.1-0.4,0.1c-0.4,0-0.8-0.3-1-0.5
				c-0.1-1.3-0.3-2.6-0.4-3.9c0-0.1,0-0.1,0-0.1c0.1-2.1,0.3-4.1,0.4-6.2c0.3-0.3,0.6-0.5,1-0.5c0.1,0,0.4,0,0.5,0.1
				c0.3,0.1,0.4,0.3,0.6,0.4C102.2,30.7,102.3,32.4,102.6,34z"/>
			
				<linearGradient id="SVGID_20_" gradientUnits="userSpaceOnUse" x1="17.0802" y1="463.8739" x2="17.0802" y2="372.356" gradientTransform="matrix(1 0 0 1 0 -371.3134)">
				<stop  offset="0" style="stop-color:#FFFFFF"/>
				<stop  offset="1" style="stop-color:#1D1D1B"/>
			</linearGradient>
			<path class="st19" d="M18.1,65.8h-2.1V55.6h2.1C18.1,59.1,18.1,62.5,18.1,65.8z"/>
			
				<linearGradient id="SVGID_21_" gradientUnits="userSpaceOnUse" x1="101.1259" y1="463.8739" x2="101.1259" y2="372.356" gradientTransform="matrix(1 0 0 1 0 -371.3134)">
				<stop  offset="0" style="stop-color:#FFFFFF"/>
				<stop  offset="1" style="stop-color:#1D1D1B"/>
			</linearGradient>
			<path class="st20" d="M100,39.2h2.2c0,3,0,5.9,0,8.9c-0.4,0.5-1.2,0.6-1.8,0.3c-0.1-0.1-0.3-0.1-0.3-0.3L100,39.2z"/>
			
				<linearGradient id="SVGID_22_" gradientUnits="userSpaceOnUse" x1="101.0616" y1="463.8739" x2="101.0616" y2="372.356" gradientTransform="matrix(1 0 0 1 0 -371.3134)">
				<stop  offset="0" style="stop-color:#FFFFFF"/>
				<stop  offset="1" style="stop-color:#1D1D1B"/>
			</linearGradient>
			<path class="st21" d="M100,48.1h2.1c0,3,0,5.9,0,8.9c-0.4,0.5-1.3,0.6-1.8,0.3c-0.1-0.1-0.1-0.1-0.3-0.3V48.1z"/>
			
				<linearGradient id="SVGID_23_" gradientUnits="userSpaceOnUse" x1="101.0616" y1="463.8739" x2="101.0616" y2="372.356" gradientTransform="matrix(1 0 0 1 0 -371.3134)">
				<stop  offset="0" style="stop-color:#FFFFFF"/>
				<stop  offset="1" style="stop-color:#1D1D1B"/>
			</linearGradient>
			<path class="st22" d="M100,56.9h2.1v8.9H100V56.9z"/>
			
				<linearGradient id="SVGID_24_" gradientUnits="userSpaceOnUse" x1="16.8331" y1="463.8739" x2="16.8331" y2="372.356" gradientTransform="matrix(1 0 0 1 0 -371.3134)">
				<stop  offset="0" style="stop-color:#FFFFFF"/>
				<stop  offset="1" style="stop-color:#1D1D1B"/>
			</linearGradient>
			<path class="st23" d="M18.1,30.3h-2.1c0.6-4.2-2.6-9.1,2.1-12.7V30.3z"/>
			
				<linearGradient id="SVGID_25_" gradientUnits="userSpaceOnUse" x1="101.2821" y1="463.8739" x2="101.2821" y2="372.356" gradientTransform="matrix(1 0 0 1 0 -371.3134)">
				<stop  offset="0" style="stop-color:#FFFFFF"/>
				<stop  offset="1" style="stop-color:#1D1D1B"/>
			</linearGradient>
			<path class="st24" d="M102.1,29H100c0-3.3,0-6.8,0-10.2C104.5,21.4,101.4,25.7,102.1,29z"/>
			
				<linearGradient id="SVGID_26_" gradientUnits="userSpaceOnUse" x1="59.3141" y1="463.8739" x2="59.3141" y2="372.356" gradientTransform="matrix(1 0 0 1 0 -371.3134)">
				<stop  offset="0" style="stop-color:#FFFFFF"/>
				<stop  offset="1" style="stop-color:#1D1D1B"/>
			</linearGradient>
			<path class="st25" d="M64.9,56.5c0.5,1.8-1.4,1.5-2.6,1.4c-8.1-1.3-9.9-3.9-9-13.4l0,0c1.8,0.1,2.4,1.7,3.3,2.8
				c0.1,0.1,0.1,0.3,0.3,0.4c-0.1,0.1-0.1,0.3-0.3,0.4l0,0c0.3,1.9-0.1,4.9,2.8,4.4c3-0.5,1.9-3.6,2.2-5.7l0,0
				c-0.1-0.1-0.3-0.4-0.4-0.5c0.1-0.1,0.3-0.3,0.3-0.4c1-1.4,1.2-3.3,3-4.2C67.1,46.5,63.5,51.5,64.9,56.5z"/>
			
				<linearGradient id="SVGID_27_" gradientUnits="userSpaceOnUse" x1="76.1031" y1="463.8739" x2="76.1031" y2="372.356" gradientTransform="matrix(1 0 0 1 0 -371.3134)">
				<stop  offset="0" style="stop-color:#FFFFFF"/>
				<stop  offset="1" style="stop-color:#1D1D1B"/>
			</linearGradient>
			<path class="st26" d="M81.5,54.4c0,1.9-1.5,2.2-3,2.4c-5.4,0.9-8.1-2.1-7.8-8.7c0.9-1,2.6-1,3.5,0l0,0c-0.3,3.5,1.8,4.1,4.8,4.1
				C80.2,52.2,81.5,52.8,81.5,54.4z"/>
			
				<linearGradient id="SVGID_28_" gradientUnits="userSpaceOnUse" x1="58.8275" y1="463.8739" x2="58.8275" y2="372.356" gradientTransform="matrix(1 0 0 1 0 -371.3134)">
				<stop  offset="0" style="stop-color:#FFFFFF"/>
				<stop  offset="1" style="stop-color:#1D1D1B"/>
			</linearGradient>
			<path class="st27" d="M64.4,41.6c-0.5,1.9,0.6,4.9-2.8,5.1l0,0c-0.1-0.1-0.3-0.4-0.4-0.5c0.1-0.1,0.3-0.3,0.3-0.4
				c0-1.8,0.4-3.7-1.7-4.8c-1.7-0.9-2.6,0.5-3.3,1.8l0,0c0.1,0.1,0.1,0.3,0.3,0.4h-0.3l0,0c-0.4,0.1-0.8,0.3-1.2,0.4
				c-1.9-0.5-2.6-1.5-1.5-3.3c0.8-3.6,3.7-3.6,6.4-3.3c2.3,0,4.1,1.9,4.1,4.1C64.4,41.4,64.4,41.5,64.4,41.6z"/>
			
				<linearGradient id="SVGID_29_" gradientUnits="userSpaceOnUse" x1="43.6609" y1="463.8739" x2="43.6609" y2="372.356" gradientTransform="matrix(1 0 0 1 0 -371.3134)">
				<stop  offset="0" style="stop-color:#FFFFFF"/>
				<stop  offset="1" style="stop-color:#1D1D1B"/>
			</linearGradient>
			<path class="st28" d="M49,53.3c-0.1,1-0.6,2.1-1.7,2.4c-2.6,1.4-5.7,1.5-8.4,0.4C38,55.8,37.7,54.7,38,54c0-0.1,0.1-0.3,0.3-0.4
				c1.8-2.4,4.6-1.2,6.9-1.7c0.6-1.2,1.4-2.2,3-1.7C49.7,50.9,49.6,52,49,53.3z"/>
			
				<linearGradient id="SVGID_30_" gradientUnits="userSpaceOnUse" x1="42.8174" y1="463.8739" x2="42.8174" y2="372.356" gradientTransform="matrix(1 0 0 1 0 -371.3134)">
				<stop  offset="0" style="stop-color:#FFFFFF"/>
				<stop  offset="1" style="stop-color:#1D1D1B"/>
			</linearGradient>
			<path class="st29" d="M45.2,41.4c-2.6,0.4-3.1,1.8-2.4,4c-1.3,1-2.7-0.1-4.1,0.1c-1.4-5.7,0.4-8.9,5-8.7c1.5,0,3.1,0.3,3.6,1.9
				C47.8,40.5,46.5,41.1,45.2,41.4z"/>
			
				<linearGradient id="SVGID_31_" gradientUnits="userSpaceOnUse" x1="43.9643" y1="463.8739" x2="43.9643" y2="372.356" gradientTransform="matrix(1 0 0 1 0 -371.3134)">
				<stop  offset="0" style="stop-color:#FFFFFF"/>
				<stop  offset="1" style="stop-color:#1D1D1B"/>
			</linearGradient>
			<path class="st30" d="M46.9,49.7c-1.8-0.8-3.9-0.8-5.7-1.5c-1.3,0.1-2.3-0.8-2.4-1.9c0-0.3,0-0.4,0-0.6c1.2-5,2.7,0,4.1-0.1
				c2.4-0.3,4.9-0.1,6.2,2.6C49.2,49.7,48.1,50.2,46.9,49.7z"/>
			
				<linearGradient id="SVGID_32_" gradientUnits="userSpaceOnUse" x1="72.3819" y1="463.8739" x2="72.3819" y2="372.356" gradientTransform="matrix(1 0 0 1 0 -371.3134)">
				<stop  offset="0" style="stop-color:#FFFFFF"/>
				<stop  offset="1" style="stop-color:#1D1D1B"/>
			</linearGradient>
			<path class="st31" d="M74.2,48.1h-3.6c0-1.7,0-3.3,0-5c0.9-1,2.4-1,3.5,0l0,0C74.2,44.7,74.2,46.4,74.2,48.1z"/>
			
				<linearGradient id="SVGID_33_" gradientUnits="userSpaceOnUse" x1="45.6313" y1="463.8739" x2="45.6313" y2="372.356" gradientTransform="matrix(1 0 0 1 0 -371.3134)">
				<stop  offset="0" style="stop-color:#FFFFFF"/>
				<stop  offset="1" style="stop-color:#1D1D1B"/>
			</linearGradient>
			<path class="st32" d="M49,53.3c-0.3-3.1-1.9-2.4-3.7-1.4c0.1-3-3-2.2-4.1-3.7c2.6-1.2,5.3,2.1,7.8-0.1
				C50.5,49.3,50.5,51.7,49,53.3C49.1,53.2,49.1,53.3,49,53.3z"/>
			
				<linearGradient id="SVGID_34_" gradientUnits="userSpaceOnUse" x1="54.8627" y1="463.8739" x2="54.8627" y2="372.356" gradientTransform="matrix(1 0 0 1 0 -371.3134)">
				<stop  offset="0" style="stop-color:#FFFFFF"/>
				<stop  offset="1" style="stop-color:#1D1D1B"/>
			</linearGradient>
			<path class="st33" d="M56.8,43.3c-0.1-0.1-0.1-0.3-0.3-0.4l0,0C55.1,43,54,42,53.9,40.6c0-0.1,0-0.3,0-0.3
				c-1.3,1.2-1,2.7-0.6,4.2l0,0c1,1.3,0.8,3.7,3.3,3.5l0,0c0.1-0.1,0.3-0.3,0.3-0.4V43.3z"/>
			
				<linearGradient id="SVGID_35_" gradientUnits="userSpaceOnUse" x1="72.4463" y1="463.8739" x2="72.4463" y2="372.356" gradientTransform="matrix(1 0 0 1 0 -371.3134)">
				<stop  offset="0" style="stop-color:#FFFFFF"/>
				<stop  offset="1" style="stop-color:#1D1D1B"/>
			</linearGradient>
			<path class="st34" d="M74.2,40.5c-0.9,1-2.3,1-3.3,0.1l-0.1-0.1c-0.1-1.3,0.1-2.6,1.8-2.6C74.1,37.9,74.3,39.1,74.2,40.5z"/>
			
				<linearGradient id="SVGID_36_" gradientUnits="userSpaceOnUse" x1="72.3819" y1="463.8739" x2="72.3819" y2="372.356" gradientTransform="matrix(1 0 0 1 0 -371.3134)">
				<stop  offset="0" style="stop-color:#FFFFFF"/>
				<stop  offset="1" style="stop-color:#1D1D1B"/>
			</linearGradient>
			<path class="st35" d="M74.2,42.9h-3.6c0-0.9,0-1.7,0-2.6h3.5C74.2,41.2,74.2,42.1,74.2,42.9z"/>
			
				<linearGradient id="SVGID_37_" gradientUnits="userSpaceOnUse" x1="59.1352" y1="463.8739" x2="59.1352" y2="372.356" gradientTransform="matrix(1 0 0 1 0 -371.3134)">
				<stop  offset="0" style="stop-color:#FFFFFF"/>
				<stop  offset="1" style="stop-color:#1D1D1B"/>
			</linearGradient>
			<path class="st36" d="M61.6,45.9c-0.1,0.1-0.1,0.3-0.3,0.4c0.1,0.1,0.3,0.4,0.4,0.5C61.6,46.5,61.6,46.3,61.6,45.9z M56.8,43.3
				c-0.1-0.1-0.1-0.3-0.3-0.4v0.4c0,1.3,0,2.7,0,4v0.6c0.1-0.1,0.3-0.3,0.3-0.4V43.3z"/>
			<path class="st37" d="M49,47.9c1.4,1.4,1.5,3.7,0.1,5.3L49,53.3c-0.1,1-0.6,2.1-1.7,2.4c-2.6,1.4-5.7,1.5-8.4,0.4
				C38,55.8,37.7,54.7,38,54c0-0.1,0.1-0.3,0.3-0.4c1.8-2.4,4.6-1.2,6.9-1.7c0.3-3-3-2.2-4-3.7c-1.3,0.1-2.3-0.8-2.4-1.9
				c0-0.3,0-0.4,0-0.6c-1.4-5.7,0.4-8.9,5-8.7c1.5,0,3.1,0.3,3.6,1.9c0.5,1.7-0.8,2.4-2.1,2.7c-2.6,0.4-3.1,1.8-2.4,4
				C45.2,45.2,47.7,45.2,49,47.9z"/>
			<path class="st37" d="M64.4,41.6c0.3-2.3-1.4-4.4-3.6-4.6c-0.1,0-0.3,0-0.5,0c-2.7-0.3-5.7-0.3-6.4,3.3c-1.3,1.2-1,2.7-0.6,4.2
				l0,0c-0.9,9.5,0.9,12.1,9,13.4c1.3,0.1,3.1,0.4,2.6-1.4C63.5,51.5,67.1,46.5,64.4,41.6z M56.8,47.8c-0.1,0.1-0.1,0.3-0.3,0.4l0,0
				c0.3,1.9-0.1,4.9,2.8,4.4c3-0.5,1.9-3.6,2.2-5.7l0,0c-0.1-0.1-0.3-0.4-0.4-0.5c0.1-0.1,0.3-0.3,0.3-0.4c0-1.8,0.4-3.7-1.7-4.8
				c-1.7-0.9-2.6,0.5-3.3,1.8l0,0c0.1,0.1,0.1,0.3,0.3,0.4L56.8,47.8z"/>
			<path class="st37" d="M81.5,54.4c0,1.9-1.5,2.2-3,2.4c-5.4,0.9-8.1-2.1-7.8-8.7c0-1.7,0-3.3,0-5c0-0.9,0-1.7,0-2.6
				c-0.1-1.3,0.1-2.6,1.8-2.6c1.7,0,1.8,1.3,1.8,2.6c0,0.9,0,1.7,0,2.6c0,1.7,0,3.3,0,5c-0.3,3.5,1.8,4.1,4.8,4.1
				C80.2,52.2,81.5,52.8,81.5,54.4z"/>
			<path class="st37" d="M102.6,34.2L102.6,34.2c0.5-8.9,1.2-17.9-0.5-26.8C100.5,2.7,96.9,1,92.3,1H25.8c-4.6,0-8.2,1.5-9.8,6.4
				c-1.8,9.3-1,18.5-0.5,27.9l0,0c-0.1,6.9-0.6,13.9-0.4,20.7c0.3,10-1.2,20.1,0.9,30.1c1.5,4.8,5.1,6.3,9.8,6.3
				c22.1,0,44.4,0,66.5,0c4.6,0,8.2-1.5,9.8-6.3C104,68.9,103,51.5,102.6,34.2z M99,79.8c0,7.7-1.3,9-8.7,9c-20.7,0-41.4,0-62.1,0
				c-7.6,0-8.7-1.3-8.7-9c-0.1-14.8-0.1-29.6-0.1-44.4l0,0c0.1,0,0.3-0.1,0.4-0.3c-0.1,0-0.3-0.1-0.4-0.1l0,0c0-7.6,0.1-15,0.1-22.5
				c0-5.3,2.1-7.7,7.6-7.7C48.6,5,70.1,5,91.7,4.8c5.4,0,7.6,2.4,7.6,7.7c0,7.5,0.1,15,0.1,22.5c-0.1,0-0.3,0-0.4,0.1
				c0.1,0.1,0.3,0.1,0.4,0.3C99.1,50.2,99,65,99,79.8z"/>
			<path class="st38" d="M102.1,86.3c-1.5,4.8-5.1,6.3-9.8,6.3c-22.1,0-44.2,0-66.5,0c-4.6,0-8.2-1.5-9.8-6.3c2.1-3.1,0-6.6,0.6-9.8
				V76V65.8v-0.4c0-3.1,0-6.2,0-9.4v-0.4c0-4.1,0-8.2,0-12.2v-0.3V43l0,0c0-1.8,0.1-3.5,0.4-5.3c0.3-0.9,0.6-1.8,1.3-2.6h0.1h0.3
				c0.1,0,0.3,0,0.4,0l0,0c0.1,0,0.3,0,0.4,0.1c-0.1,0.1-0.3,0.1-0.4,0.3l0,0c0,14.8,0.1,29.6,0.1,44.4c0,7.7,1.3,9,8.7,9
				c20.7,0,41.4,0,62.1,0c7.6,0,8.7-1.3,8.9-9c0.1-14.8,0.1-29.6,0.1-44.4c-0.1,0-0.3-0.1-0.4-0.3c0.1,0,0.3-0.1,0.4-0.1h0.3
				l0.3,0.1l0.1,0.1c0.6,0.5,1.2,1.2,1.4,1.9c0.1,0.5,0.3,1.2,0.3,1.7c0,0.1,0,0.1,0,0.1l0,0c0,0.1,0,0.3,0,0.4
				c0.1,2.8,0,5.7,0.1,8.4v0.4c0,2.8,0,5.7,0,8.5v0.5c0,2.7,0,5.4,0,8.1v0.4c0,3.3,0,6.7,0,10l0,0v0.5C102.1,79.7,100,83,102.1,86.3
				z"/>
			<path class="st39" d="M101.4,20.1c0,2.8,0,5.7,0,8.5v0.5c0,1.2-0.1,2.2-0.3,3.3c-0.1,1.2-0.8,2.2-1.5,2.8l-0.1,0.1h-0.4
				c-0.1,0-0.3-0.1-0.4-0.3c0.1,0,0.3-0.1,0.4-0.1c0-7.5-0.3-15-0.1-22.5c0-5.3-2.1-7.7-7.6-7.7C69.8,5,48.3,5,26.7,4.8
				c-5.4,0-7.6,2.4-7.6,7.7c0.1,7.5-0.1,15-0.1,22.5l0,0c0.1,0,0.3,0,0.4,0.1c-0.1,0.1-0.3,0.1-0.4,0.3h-0.4l-0.3-0.1
				c-0.6-0.6-1.2-1.4-1.3-2.3c-0.1-0.9-0.3-1.8-0.4-2.7l0,0v-0.4c0-3.6,0-7.1,0-10.7l0,0v-0.8c-0.8-3.6,1.4-7.5-0.6-10.9
				c1.5-4.9,5.1-6.4,9.8-6.4h66.5c4.6,0,8.2,1.7,9.8,6.4c-2.2,3.9,0.1,8-0.5,12v0.6H101.4z"/>
			<path class="st40" d="M102.1,86.1c-4.2-2.2-1.7-5.9-2.1-9c1.9-3.6,0.8-7.6,1-11.3v-0.5V39.6c0-0.1,0-0.4,0-0.5c0-0.6,0-1.3,0-1.8
				c0-0.9,0.3-1.8,0.6-2.6l0.9-0.6C103,51.5,104,68.9,102.1,86.1z"/>
			<path class="st41" d="M16.1,86.1c-2.1-10-0.8-20.1-0.9-30.1c-0.3-6.9,0.3-13.8,0.4-20.7l0,0l0.9,0.6c0.3,0.5,0.5,1.2,0.5,1.7
				c0.1,1.8,0.3,3.5,0.1,5.3c0,0.1,0,0.4,0,0.5v21.7v0.1v0.5c0.3,3.7-0.9,7.7,1,11.3C17.7,80.2,20.3,84.1,16.1,86.1z"/>
			<path class="st42" d="M18.1,17.6c-1.9,3.9-0.8,8.1-1,12.1c0,0.1,0,0.4,0,0.5c0,0.1,0,0.3,0,0.4c-0.1,0.8,0,1.5-0.1,2.3
				c0,1-0.6,1.9-1.5,2.4l0,0c-0.5-9.3-1.3-18.6,0.5-27.9C20.7,10,17.5,14.2,18.1,17.6z"/>
			<path class="st43" d="M102.6,34c-0.6-0.4-1.2-1-1.3-1.7c-0.1-0.9-0.3-1.9-0.1-3c0-0.1,0-0.4,0-0.5c0-0.1,0-0.4,0-0.5
				c-0.1-3.2,0.8-6.6-1-9.6c0.6-3.9-2.4-8.4,2.1-11.4C103.8,16.3,103.1,25.2,102.6,34z"/>
			<path class="st37" d="M49,47.9c1.4,1.4,1.5,3.7,0.1,5.3L49,53.3c-0.1,1-0.6,2.1-1.7,2.4c-2.6,1.4-5.7,1.5-8.4,0.4
				C38,55.8,37.7,54.7,38,54c0-0.1,0.1-0.3,0.3-0.4c1.8-2.4,4.6-1.2,6.9-1.7c0.3-3-3-2.2-4-3.7c-1.3,0.1-2.3-0.8-2.4-1.9
				c0-0.3,0-0.4,0-0.6c-1.4-5.7,0.4-8.9,5-8.7c1.5,0,3.1,0.3,3.6,1.9c0.5,1.7-0.8,2.4-2.1,2.7c-2.6,0.4-3.1,1.8-2.4,4
				C45.2,45.2,47.7,45.2,49,47.9z"/>
			<path class="st37" d="M64.4,41.6c0.3-2.3-1.4-4.4-3.6-4.6c-0.1,0-0.3,0-0.5,0c-2.7-0.3-5.7-0.3-6.4,3.3c-1.3,1.2-1,2.7-0.6,4.2
				l0,0c-0.9,9.5,0.9,12.1,9,13.4c1.3,0.1,3.1,0.4,2.6-1.4C63.5,51.5,67.1,46.5,64.4,41.6z M56.8,47.8c-0.1,0.1-0.1,0.3-0.3,0.4l0,0
				c0.3,1.9-0.1,4.9,2.8,4.4c3-0.5,1.9-3.6,2.2-5.7l0,0c-0.1-0.1-0.3-0.4-0.4-0.5c0.1-0.1,0.3-0.3,0.3-0.4c0-1.8,0.4-3.7-1.7-4.8
				c-1.7-0.9-2.6,0.5-3.3,1.8l0,0c0.1,0.1,0.1,0.3,0.3,0.4L56.8,47.8z"/>
			<path class="st37" d="M81.5,54.4c0,1.9-1.5,2.2-3,2.4c-5.4,0.9-8.1-2.1-7.8-8.7c0-1.7,0-3.3,0-5c0-0.9,0-1.7,0-2.6
				c-0.1-1.3,0.1-2.6,1.8-2.6c1.7,0,1.8,1.3,1.8,2.6c0,0.9,0,1.7,0,2.6c0,1.7,0,3.3,0,5c-0.3,3.5,1.8,4.1,4.8,4.1
				C80.2,52.2,81.5,52.8,81.5,54.4z"/>
			<path class="st37" d="M19,35.1L19,35.1v0.3l0,0c0.1,0,0.3-0.1,0.4-0.3C19.3,35.1,19.1,35.1,19,35.1z M98.7,35.1
				c0.1,0.1,0.3,0.1,0.4,0.3v-0.3C99,35.1,98.9,35.1,98.7,35.1L98.7,35.1z"/>
			<path class="st44" d="M15.5,35.3l0.5-5c0.4-0.5,1.2-0.6,1.8-0.3c0.1,0.1,0.3,0.1,0.3,0.3c0.1,1.7,0.3,3.3,0.4,5.1L18.1,43
				c-0.4,0.6-1.2,0.8-1.8,0.3c-0.1-0.1-0.3-0.1-0.3-0.3L15.5,35.3z"/>
			<path class="st45" d="M16.1,43h2.1c0,4.2,0,8.5,0,12.7c-0.4,0.5-1.3,0.6-1.8,0.3c-0.1-0.1-0.1-0.1-0.3-0.3L16.1,43z"/>
			<path class="st46" d="M18.1,77.3c-4.8-3.1-1.3-7.6-2.1-11.4c0.4-0.5,1.3-0.6,1.8-0.3c0.1,0.1,0.1,0.1,0.3,0.3L18.1,77.3z"/>
			<path class="st47" d="M102.1,65.8c-0.8,3.7,2.7,8.4-2.1,11.4V65.8c0.4-0.5,1.3-0.6,1.8-0.3C102,65.7,102,65.7,102.1,65.8z"/>
			<path class="st48" d="M102.6,34L102.6,34l-0.5,5.1c-0.1,0.3-0.4,0.4-0.6,0.4c-0.1,0-0.3,0.1-0.4,0.1c-0.4,0-0.8-0.3-1-0.5
				c-0.1-1.3-0.3-2.6-0.4-3.9c0-0.1,0-0.1,0-0.1c0.1-2.1,0.3-4.1,0.4-6.2c0.3-0.3,0.6-0.5,1-0.5c0.1,0,0.4,0,0.5,0.1
				c0.3,0.1,0.4,0.3,0.6,0.4C102.2,30.7,102.3,32.4,102.6,34z"/>
			<path class="st49" d="M18.1,65.8h-2.1V55.6h2.1C18.1,59.1,18.1,62.5,18.1,65.8z"/>
			<path class="st50" d="M100,39.2h2.2c0,3,0,5.9,0,8.9c-0.4,0.5-1.2,0.6-1.8,0.3c-0.1-0.1-0.3-0.1-0.3-0.3L100,39.2z"/>
			<path class="st51" d="M100,48.1h2.1c0,3,0,5.9,0,8.9c-0.4,0.5-1.3,0.6-1.8,0.3c-0.1-0.1-0.1-0.1-0.3-0.3V48.1z"/>
			<path class="st52" d="M100,56.9h2.1v8.9H100V56.9z"/>
			<path class="st53" d="M18.1,30.3h-2.1c0.6-4.2-2.6-9.1,2.1-12.7V30.3z"/>
			<path class="st54" d="M102.1,29H100c0-3.3,0-6.8,0-10.2C104.5,21.4,101.4,25.7,102.1,29z"/>
			<path class="st55" d="M64.9,56.5c0.5,1.8-1.4,1.5-2.6,1.4c-8.1-1.3-9.9-3.9-9-13.4l0,0c1.8,0.1,2.4,1.7,3.3,2.8
				c0.1,0.1,0.1,0.3,0.3,0.4c-0.1,0.1-0.1,0.3-0.3,0.4l0,0c0.3,1.9-0.1,4.9,2.8,4.4c3-0.5,1.9-3.6,2.2-5.7l0,0
				c-0.1-0.1-0.3-0.4-0.4-0.5c0.1-0.1,0.3-0.3,0.3-0.4c1-1.4,1.2-3.3,3-4.2C67.1,46.5,63.5,51.5,64.9,56.5z"/>
			<path class="st56" d="M81.5,54.4c0,1.9-1.5,2.2-3,2.4c-5.4,0.9-8.1-2.1-7.8-8.7c0.9-1,2.6-1,3.5,0l0,0c-0.3,3.5,1.8,4.1,4.8,4.1
				C80.2,52.2,81.5,52.8,81.5,54.4z"/>
			<path class="st57" d="M64.4,41.6c-0.5,1.9,0.6,4.9-2.8,5.1l0,0c-0.1-0.1-0.3-0.4-0.4-0.5c0.1-0.1,0.3-0.3,0.3-0.4
				c0-1.8,0.4-3.7-1.7-4.8c-1.7-0.9-2.6,0.5-3.3,1.8l0,0c0.1,0.1,0.1,0.3,0.3,0.4h-0.3l0,0c-0.4,0.1-0.8,0.3-1.2,0.4
				c-1.9-0.5-2.6-1.5-1.5-3.3c0.8-3.6,3.7-3.6,6.4-3.3c2.3,0,4.1,1.9,4.1,4.1C64.4,41.4,64.4,41.5,64.4,41.6z"/>
			<path class="st58" d="M49,53.3c-0.1,1-0.6,2.1-1.7,2.4c-2.6,1.4-5.7,1.5-8.4,0.4C38,55.8,37.7,54.7,38,54c0-0.1,0.1-0.3,0.3-0.4
				c1.8-2.4,4.6-1.2,6.9-1.7c0.6-1.2,1.4-2.2,3-1.7C49.7,50.9,49.6,52,49,53.3z"/>
			<path class="st59" d="M45.2,41.4c-2.6,0.4-3.1,1.8-2.4,4c-1.3,1-2.7-0.1-4.1,0.1c-1.4-5.7,0.4-8.9,5-8.7c1.5,0,3.1,0.3,3.6,1.9
				C47.8,40.5,46.5,41.1,45.2,41.4z"/>
			<path class="st60" d="M46.9,49.7c-1.8-0.8-3.9-0.8-5.7-1.5c-1.3,0.1-2.3-0.8-2.4-1.9c0-0.3,0-0.4,0-0.6c1.2-5,2.7,0,4.1-0.1
				c2.4-0.3,4.9-0.1,6.2,2.6C49.2,49.7,48.1,50.2,46.9,49.7z"/>
			<path class="st61" d="M74.2,48.1h-3.6c0-1.7,0-3.3,0-5c0.9-1,2.4-1,3.5,0l0,0C74.2,44.7,74.2,46.4,74.2,48.1z"/>
			<path class="st62" d="M49,53.3c-0.3-3.1-1.9-2.4-3.7-1.4c0.1-3-3-2.2-4.1-3.7c2.6-1.2,5.3,2.1,7.8-0.1
				C50.5,49.3,50.5,51.7,49,53.3C49.1,53.2,49.1,53.3,49,53.3z"/>
			<path class="st63" d="M56.8,43.3c-0.1-0.1-0.1-0.3-0.3-0.4l0,0C55.1,43,54,42,53.9,40.6c0-0.1,0-0.3,0-0.3
				c-1.3,1.2-1,2.7-0.6,4.2l0,0c1,1.3,0.8,3.7,3.3,3.5l0,0c0.1-0.1,0.3-0.3,0.3-0.4V43.3z"/>
			<path class="st64" d="M74.2,40.5c-0.9,1-2.3,1-3.3,0.1l-0.1-0.1c-0.1-1.3,0.1-2.6,1.8-2.6C74.1,37.9,74.3,39.1,74.2,40.5z"/>
			<path class="st65" d="M74.2,42.9h-3.6c0-0.9,0-1.7,0-2.6h3.5C74.2,41.2,74.2,42.1,74.2,42.9z"/>
			<path class="st66" d="M61.6,45.9c-0.1,0.1-0.1,0.3-0.3,0.4c0.1,0.1,0.3,0.4,0.4,0.5C61.6,46.5,61.6,46.3,61.6,45.9z M56.8,43.3
				c-0.1-0.1-0.1-0.3-0.3-0.4v0.4c0,1.3,0,2.7,0,4v0.6c0.1-0.1,0.3-0.3,0.3-0.4V43.3z"/>
		</g>
	</g>
	<g class="st67">
		<path class="st68" d="M9.3,71.2L4.4,42.4c0-0.2,0-0.3,0-0.5v-9.3c0-2.3,2.9-4.2,6.5-4.2h9.4c3.6,0,6.5,1.9,6.5,4.2V42
			c0,0.1,0,0.3,0,0.4l-4.6,28.8c-0.3,2.2-3.1,3.8-6.4,3.8h0C12.4,75,9.7,73.4,9.3,71.2z M5.2,86.2v-0.2c0-2.3,2.9-4.2,6.5-4.2h7.8
			c3.6,0,6.5,1.9,6.5,4.2v0.2c0,2.3-2.9,4.2-6.5,4.2h-7.8C8.1,90.4,5.2,88.5,5.2,86.2z"/>
	</g>
</g>
</svg>
