<svg xmlns="http://www.w3.org/2000/svg" xmlns:xlink="http://www.w3.org/1999/xlink" viewBox="0 0 73.47 76.95"><defs><style>.cls-1{fill:url(#Blanc_Noir);}.cls-2{fill:#fff;}.cls-3{fill:#664e9b;}.cls-4{fill:#465aa5;}.cls-5{fill:#425da8;}.cls-6{fill:#4266ae;}.cls-7{fill:#515aa4;}.cls-8{fill:#7f5ba2;}.cls-9{fill:#8457a0;}.cls-10{fill:#7256a0;}.cls-11{fill:#fffeff;}.cls-12{fill:#584f9c;}.cls-13{fill:#4c55a1;}.cls-14{fill:#52529f;}.cls-15{fill:#5f4d9b;}.cls-16{fill:#fefeff;}.cls-17{fill:#5168af;}.cls-18{fill:#5a4e9c;}.cls-19{fill:#5a55a0;}.cls-20{fill:#5159a4;}.cls-21{fill:#5556a2;}.cls-22{fill:#5f529e;}.cls-23{fill:#b3b4db;}.cls-24{fill:#92bce6;}.cls-25{fill:#9cbae2;}.cls-26{fill:#bbb1d8;}.cls-27{fill:#c1afd6;}.cls-28{fill:#4564ad;}.cls-29{fill:#a7b7df;}</style><linearGradient id="Blanc_Noir" x1="36.74" y1="76.95" x2="36.74" gradientUnits="userSpaceOnUse"><stop offset="0" stop-color="#fff"/><stop offset="1" stop-color="#1d1d1b"/></linearGradient></defs><title>Fichier 10</title><g id="Calque_2" data-name="Calque 2"><g id="Calque_1-2" data-name="Calque 1"><path class="cls-1" d="M27.42,35.56c-2.44,0-4.89,0-7.33,0-2.29,0-4.57,0-6.85,0-.86,0-1.63-.21-1.73-1.26-.13-1.32.69-1.69,1.79-1.69H27.48c.86,0,1.63.21,1.73,1.26C29.34,35.2,28.52,35.56,27.42,35.56Z"/><path class="cls-1" d="M27.43,41.49c-2.29,0-4.57,0-6.85,0-2.45,0-4.89,0-7.34,0-.85,0-1.63-.2-1.74-1.26-.13-1.32.69-1.69,1.79-1.69H27.48c.85,0,1.63.2,1.74,1.26C29.35,41.12,28.53,41.49,27.43,41.49Z"/><path class="cls-1" d="M29.23,45.81c.09,1.37-.84,1.6-1.89,1.61-2.44,0-4.89,0-7.33,0H13.65c-1,0-2.05,0-2.16-1.35s.83-1.61,1.89-1.61H27.56C28.44,44.47,29.16,44.78,29.23,45.81Z"/><path class="cls-1" d="M29.24,28.25c0,1-.74,1.37-1.63,1.38-2.45,0-4.89,0-7.34,0H13.42c-1,0-2-.23-1.93-1.57,0-1,.74-1.38,1.63-1.38q7.34,0,14.67,0A1.32,1.32,0,0,1,29.24,28.25Z"/><path class="cls-1" d="M52.56,39.56a2.38,2.38,0,0,1-.13.95,29.9,29.9,0,0,1-16.72,0,2.38,2.38,0,0,1-.13-.95,1.19,1.19,0,0,1,0-2.07,2.13,2.13,0,0,1,.16-.93,29.65,29.65,0,0,1,16.7,0,2,2,0,0,1,.16.93A1.19,1.19,0,0,1,52.56,39.56Z"/><path class="cls-1" d="M52.92,46.08c-.14,1.71-1.57,1.31-2.63,1.34-1.95.06-3.91,0-5.87,0-2.28,0-4.56,0-6.84,0-1.12,0-2.47.14-2.37-1.62.08-1.37,1.17-1.34,2.15-1.35,4.4,0,8.81,0,13.21,0C51.68,44.47,53.07,44.32,52.92,46.08Z"/><path class="cls-1" d="M61.49,8a3.68,3.68,0,0,1,.1,1,2.7,2.7,0,1,1-5.4-.18,3.1,3.1,0,0,1,.25-1.23M61.49,8a3.68,3.68,0,0,1,.1,1,2.7,2.7,0,1,1-5.4-.18,3.1,3.1,0,0,1,.25-1.23m-6.39-.5a3.2,3.2,0,0,1-.55-.18c-2.25,3-2.35,6.43-2.24,9.91a2.86,2.86,0,0,1,.3.22l.13.24a6.41,6.41,0,0,1-.39.52c1.88,4.14,3.79,8.27,9.1,8.9h0l5.43-.4.36,0c3.94-1.68,6.94-4.27,8.24-8.5,0-2,0-3.92,0-5.88-.47-1.08-.93-2.17-1.4-3.26a2.34,2.34,0,0,1-.38-.09M50.05,7.08a3.2,3.2,0,0,1-.55-.18c-2.25,3-2.35,6.43-2.24,9.91a2.86,2.86,0,0,1,.3.22l.13.24m0,0L47.56,17a2.86,2.86,0,0,0-.3-.22c-.11-3.48,0-6.91,2.24-9.91a3.2,3.2,0,0,0,.55.18m11.8,19.21-5.43.4h0m5.45-.4-5.43.4h0M3,16.22c.12-1,1-1.41,2.58-1.41q18.09.06,36.18,0A2.5,2.5,0,0,1,44.28,16M3.21,17.73c12.44,0,24.87.06,37.3,0,1.38,0,3,.59,4.05-1m16,2.17c-1.2-1,1.24-4.06-1.79-3.93-2.59.1-1.31,2.84-1.3,4.31S56.17,23.59,59,23.5,59.74,20.63,60.61,19Zm.88-11a2.69,2.69,0,0,0-5.05-.39,3.1,3.1,0,0,0-.25,1.23,2.7,2.7,0,1,0,5.4.18A3.68,3.68,0,0,0,61.49,8Zm-.88,11c-1.2-1,1.24-4.06-1.79-3.93-2.59.1-1.31,2.84-1.3,4.31S56.17,23.59,59,23.5,59.74,20.63,60.61,19Zm0,0c-1.2-1,1.24-4.06-1.79-3.93-2.59.1-1.31,2.84-1.3,4.31S56.17,23.59,59,23.5,59.74,20.63,60.61,19Zm0,0c-1.2-1,1.24-4.06-1.79-3.93-2.59.1-1.31,2.84-1.3,4.31S56.17,23.59,59,23.5,59.74,20.63,60.61,19Zm0,0c-1.2-1,1.24-4.06-1.79-3.93-2.59.1-1.31,2.84-1.3,4.31S56.17,23.59,59,23.5,59.74,20.63,60.61,19Zm0,0c-1.2-1,1.24-4.06-1.79-3.93-2.59.1-1.31,2.84-1.3,4.31S56.17,23.59,59,23.5,59.74,20.63,60.61,19Zm0,0c-1.2-1,1.24-4.06-1.79-3.93-2.59.1-1.31,2.84-1.3,4.31S56.17,23.59,59,23.5,59.74,20.63,60.61,19Zm0,0c-1.2-1,1.24-4.06-1.79-3.93-2.59.1-1.31,2.84-1.3,4.31S56.17,23.59,59,23.5,59.74,20.63,60.61,19Zm0,0c-1.2-1,1.24-4.06-1.79-3.93-2.59.1-1.31,2.84-1.3,4.31S56.17,23.59,59,23.5,59.74,20.63,60.61,19Zm0,0c-1.2-1,1.24-4.06-1.79-3.93-2.59.1-1.31,2.84-1.3,4.31S56.17,23.59,59,23.5,59.74,20.63,60.61,19Zm0,0c-1.2-1,1.24-4.06-1.79-3.93-2.59.1-1.31,2.84-1.3,4.31S56.17,23.59,59,23.5,59.74,20.63,60.61,19Zm0,0c-1.2-1,1.24-4.06-1.79-3.93-2.59.1-1.31,2.84-1.3,4.31S56.17,23.59,59,23.5,59.74,20.63,60.61,19ZM71.31,7.91c-4.13-9.12-15.46-10.63-23-3.07-.66.7-1.74,1.31-1.9,2.11-1.08,5.19-4.78,5-8.88,5-10.66-.18-21.32-.06-32-.06-3.31,0-5.94.76-5.52,4.94-.38,2.25,1.73,2.92,2.73,4.29C2.7,32.52,2.54,44,2.59,55.37c0,2.14,0,4.85,3.36,4.94,3.8,1.44,7.75.37,11.61.66,1.61.13,3.42-.26,3.42,2.23v0C20,66.11,18.89,69,18.9,72.1a4.23,4.23,0,0,0-.63,1.28c-.14,1.25-1.5,3.06.73,3.51s1.8-1.7,2.08-3a5.48,5.48,0,0,0-.28-1.83l1.08-1.78c6.7-1,13.43-.18,20.14-.46h.28a3.8,3.8,0,0,1,3.19,1.44c0,.48,0,1,0,1.45.12,1.73.28,4.31,2.28,3.86,1.84-.41.4-2.51,0-4-1-3.61-1.5-7.34-2.21-11,3.93-1.59,8.2.34,12.13-1.17,2.07-.47,3.48-1.59,3.73-3.83a2.55,2.55,0,0,0,.27-.82l0-.14c.49-2.07.06-4.2.17-6.29.38-6.81-.71-13.66.62-20.44C71.21,25.29,76.77,17.2,71.31,7.91ZM58.42,57.41a82.19,82.19,0,0,1-15.84,0C41.33,50,35.6,54.18,32,53.52c-2.79-.51-7-1.59-7.14,3.84A118,118,0,0,1,6,57.42l-.08-.09V54.9l0-31.63V20.79c12,0,23.89,0,35.84-.09,2.33,0,3.85.49,5.18,2.63a13.13,13.13,0,0,0,9.5,6.15l.24,0,1.85.17h0q0,12.69,0,25.4v2.25Zm3.79-31.15-.36,0-5.43.4h0c-5.31-.63-7.22-4.76-9.1-8.9a6.41,6.41,0,0,0,.39-.52L47.56,17a2.86,2.86,0,0,0-.3-.22c-.11-3.48,0-6.91,2.24-9.91a3.2,3.2,0,0,0,.55.18,1.22,1.22,0,0,1,.07-.17l0-.39c8-5.15,12.27-4.76,18.73,1.53a2.18,2.18,0,0,0-.14.48,2.34,2.34,0,0,0,.38.09c.47,1.09.93,2.18,1.4,3.26,0,2,0,3.92,0,5.88C69.15,22,66.15,24.58,62.21,26.26ZM59,6a2.78,2.78,0,0,0-2.54,1.59,3.1,3.1,0,0,0-.25,1.23,2.7,2.7,0,1,0,5.4.18,3.68,3.68,0,0,0-.1-1A2.79,2.79,0,0,0,59,6Zm-.16,9c-2.59.1-1.31,2.84-1.3,4.31S56.17,23.59,59,23.5s.78-2.87,1.65-4.53C59.41,17.92,61.85,14.91,58.82,15ZM60.61,19c-1.2-1,1.24-4.06-1.79-3.93-2.59.1-1.31,2.84-1.3,4.31S56.17,23.59,59,23.5,59.74,20.63,60.61,19Zm0,0c-1.2-1,1.24-4.06-1.79-3.93-2.59.1-1.31,2.84-1.3,4.31S56.17,23.59,59,23.5,59.74,20.63,60.61,19Zm0,0c-1.2-1,1.24-4.06-1.79-3.93-2.59.1-1.31,2.84-1.3,4.31S56.17,23.59,59,23.5,59.74,20.63,60.61,19Zm0,0c-1.2-1,1.24-4.06-1.79-3.93-2.59.1-1.31,2.84-1.3,4.31S56.17,23.59,59,23.5,59.74,20.63,60.61,19ZM44.28,16a2.5,2.5,0,0,0-2.55-1.24q-18.09.07-36.18,0c-1.54,0-2.46.38-2.58,1.41l.24,1.51c12.44,0,24.87.06,37.3,0,1.38,0,3,.59,4.05-1ZM60.61,19c-1.2-1,1.24-4.06-1.79-3.93-2.59.1-1.31,2.84-1.3,4.31S56.17,23.59,59,23.5,59.74,20.63,60.61,19Zm0,0c-1.2-1,1.24-4.06-1.79-3.93-2.59.1-1.31,2.84-1.3,4.31S56.17,23.59,59,23.5,59.74,20.63,60.61,19Zm0,0c-1.2-1,1.24-4.06-1.79-3.93-2.59.1-1.31,2.84-1.3,4.31S56.17,23.59,59,23.5,59.74,20.63,60.61,19Zm0,0c-1.2-1,1.24-4.06-1.79-3.93-2.59.1-1.31,2.84-1.3,4.31S56.17,23.59,59,23.5,59.74,20.63,60.61,19Zm0,0c-1.2-1,1.24-4.06-1.79-3.93-2.59.1-1.31,2.84-1.3,4.31S56.17,23.59,59,23.5,59.74,20.63,60.61,19Zm0,0c-1.2-1,1.24-4.06-1.79-3.93-2.59.1-1.31,2.84-1.3,4.31S56.17,23.59,59,23.5,59.74,20.63,60.61,19Zm0,0c-1.2-1,1.24-4.06-1.79-3.93-2.59.1-1.31,2.84-1.3,4.31S56.17,23.59,59,23.5,59.74,20.63,60.61,19Zm0,0c-1.2-1,1.24-4.06-1.79-3.93-2.59.1-1.31,2.84-1.3,4.31S56.17,23.59,59,23.5,59.74,20.63,60.61,19Zm0,0c-1.2-1,1.24-4.06-1.79-3.93-2.59.1-1.31,2.84-1.3,4.31S56.17,23.59,59,23.5,59.74,20.63,60.61,19Zm0,0c-1.2-1,1.24-4.06-1.79-3.93-2.59.1-1.31,2.84-1.3,4.31S56.17,23.59,59,23.5,59.74,20.63,60.61,19Zm.88-11a2.69,2.69,0,0,0-5.05-.39,3.1,3.1,0,0,0-.25,1.23,2.7,2.7,0,1,0,5.4.18A3.68,3.68,0,0,0,61.49,8Zm0,0a2.69,2.69,0,0,0-5.05-.39,3.1,3.1,0,0,0-.25,1.23,2.7,2.7,0,1,0,5.4.18A3.68,3.68,0,0,0,61.49,8Zm-.88,11c-1.2-1,1.24-4.06-1.79-3.93-2.59.1-1.31,2.84-1.3,4.31S56.17,23.59,59,23.5,59.74,20.63,60.61,19Z"/><path class="cls-1" d="M61.77,55.6l0,.14a2.55,2.55,0,0,1-.27.82c-.25,2.24-1.66,3.36-3.73,3.83-4,1.31-8.24-.88-12.13,1.17.71,3.68,1.24,7.41,2.21,11,.4,1.51,1.84,3.61,0,4-2,.45-2.16-2.13-2.28-3.86,0-.48,0-1,0-1.45-.26-.62-.62-1.38-1.26-1.39l-1.93-.05c-6.81-.22-13.63-.81-20.42.47L20.8,72.1a1.21,1.21,0,0,1-1.9,0c0-3.12,1.09-6,2.08-8.88v0c.94-2.74-1.07-2.35-2.63-2.45-4.13-.25-8.29.52-12.4-.44-3.38-.09-3.36-2.8-3.36-4.94,0-11.42.11-22.85.19-34.28a3,3,0,0,1,1.45,2.66c0,.15,0,.3,0,.45s0,.25,0,.38,0,.26,0,.4h0c.07,2.21,0,4.44.09,6.65V32c0,1.62,0,3.24,0,4.85v.81c0,.53,0,1.07,0,1.6v.32c0,.38,0,.75,0,1.12v.72c0,1.74,0,3.48,0,5.22a7.66,7.66,0,0,1,0,.83,1.82,1.82,0,0,1,0,.33c0,1.72-.29,3.42.43,5v0a4.3,4.3,0,0,0,.35.67c.08.12.15.24.22.37a0,0,0,0,1,0,0c.18.31.34.65.5,1h0v2.43l.08.09a118,118,0,0,0,18.8-.06c.1-5.43,4.35-4.35,7.14-3.84,3.65.66,9.38-3.52,10.63,3.84a82.19,82.19,0,0,0,15.84,0l.08-.08V55.08a4.59,4.59,0,0,1,.54-.71h0a2.2,2.2,0,0,1,.54-.41l.17-.08h.07a2,2,0,0,1,1.09,0,1.66,1.66,0,0,1,.27.13h0a1.73,1.73,0,0,1,.47.4A3,3,0,0,1,61.77,55.6Z"/><path class="cls-1" d="M56.78,29.33h0l-.12.16-.24,0a13.13,13.13,0,0,1-9.5-6.15c-1.33-2.14-2.85-2.65-5.18-2.63-12,.12-23.89.08-35.84.09v2.48l-.42.4h0l-.31.3-.31.12-.2.06h0a1.53,1.53,0,0,1-.36,0,1.5,1.5,0,0,1-1.05-.45l-.45-2.66c-1-1.37-3.11-2-2.73-4.29A3.54,3.54,0,0,1,3,16.22l.24,1.51c12.44,0,24.87.06,37.3,0,1.38,0,3,.59,4.05-1L44.28,16a4.2,4.2,0,0,1,3,.77,2.86,2.86,0,0,1,.3.22l.13.24a6.41,6.41,0,0,1-.39.52c1.88,4.14,3.79,8.27,9.1,8.9,0,0,0,0,0,0,.18.14.37.26.55.38A2.61,2.61,0,0,1,56.78,29.33Z"/><path class="cls-1" d="M50.12,6.91a1.22,1.22,0,0,0-.07.17,3.2,3.2,0,0,1-.55-.18c-2.25,3-2.35,6.43-2.24,9.91a2.86,2.86,0,0,1,.3.22l.13.24a6.41,6.41,0,0,1-.39.52l-2.74-1L44.28,16a2.5,2.5,0,0,0-2.55-1.24q-18.09.07-36.18,0c-1.54,0-2.46.38-2.58,1.41l.24,1.51L.05,16.8c-.42-4.18,2.21-4.94,5.52-4.94,10.66,0,21.32-.12,32,.06,4.1.07,7.8.22,8.88-5,.16-.8,1.24-1.41,1.9-2.11,1.54-.27,1.67.68,1.76,1.68Z"/><path class="cls-1" d="M61.49,8l-5.05-.39A2.69,2.69,0,0,1,61.49,8Z"/><path class="cls-1" d="M71.31,7.91a2.6,2.6,0,0,1-2,.75l-.22,0a2.34,2.34,0,0,1-.38-.09,2.18,2.18,0,0,1,.14-.48C62.36,1.76,58.06,1.37,50.09,6.52l0,.39a1.22,1.22,0,0,0-.07.17,3.2,3.2,0,0,1-.55-.18,2.06,2.06,0,0,0-1.17-2.06C55.85-2.72,67.18-1.21,71.31,7.91Z"/><path class="cls-1" d="M62.56,28.87l-.3-.22,0,0L62,28.45a2.56,2.56,0,0,1-.31-1.59h0a3.21,3.21,0,0,1,.07-.43l.11-.13.36,0c3.94-1.68,6.94-4.27,8.24-8.5,0-2,0-3.92,0-5.88-.47-1.08-.93-2.17-1.4-3.26a2.34,2.34,0,0,1-.38-.09,2.18,2.18,0,0,1,.14-.48l2.49-.14C76.77,17.2,71.21,25.29,62.56,28.87Z"/><path class="cls-1" d="M61.94,49.31c-.11,2.09.32,4.22-.17,6.29l0,.14a6.55,6.55,0,0,1-.27.82c-.09-.75-.18-1.5-.28-2.26h0a3.28,3.28,0,0,1-.27-.38,5,5,0,0,1-.65-1.5c-.43-1.61-.17-3.33-.28-5v-.31c0-2.09,0-4.19,0-6.28V40.3c0-2.64-.11-5.27.1-7.89,0-.52,0-1.07.12-1.59a2.24,2.24,0,0,1,2-2.2l.07,0,.28.27C61.23,35.65,62.32,42.5,61.94,49.31Z"/><path class="cls-1" d="M45.49,71.29a3.8,3.8,0,0,0-3.19-1.44H42c-6.71.28-13.44-.56-20.14.46,1.58-2.22,3.91-1.11,5.88-1.18,4.72-.16,9.46-.07,14.2,0C43.55,69.11,45.42,68.78,45.49,71.29Z"/><path class="cls-1" d="M21,63.22v0c0-2.49-1.81-2.1-3.42-2.23-3.86-.29-7.81.78-11.61-.66,4.33,0,8.66-.09,13-.09C21,60.23,22.66,60.62,21,63.22Z"/><path class="cls-1" d="M21.08,73.93c-.28,1.26.13,3.42-2.08,3s-.87-2.26-.73-3.51a4.23,4.23,0,0,1,.63-1.28h1.9A5.48,5.48,0,0,1,21.08,73.93Z"/><path class="cls-1" d="M57.74,60.39c-3.93,1.51-8.2-.42-12.13,1.17C49.42,58.71,53.7,60.82,57.74,60.39Z"/><path class="cls-1" d="M27.42,35.56c-2.44,0-4.89,0-7.33,0-2.29,0-4.57,0-6.85,0-.86,0-1.63-.21-1.73-1.26-.13-1.32.69-1.69,1.79-1.69H27.48c.86,0,1.63.21,1.73,1.26C29.34,35.2,28.52,35.56,27.42,35.56Z"/><path class="cls-1" d="M27.43,41.49c-2.29,0-4.57,0-6.85,0-2.45,0-4.89,0-7.34,0-.85,0-1.63-.2-1.74-1.26-.13-1.32.69-1.69,1.79-1.69H27.48c.85,0,1.63.2,1.74,1.26C29.35,41.12,28.53,41.49,27.43,41.49Z"/><path class="cls-1" d="M29.23,45.81c.09,1.37-.84,1.6-1.89,1.61-2.44,0-4.89,0-7.33,0H13.65c-1,0-2.05,0-2.16-1.35s.83-1.61,1.89-1.61H27.56C28.44,44.47,29.16,44.78,29.23,45.81Z"/><path class="cls-1" d="M29.24,28.25c0,1-.74,1.37-1.63,1.38-2.45,0-4.89,0-7.34,0H13.42c-1,0-2-.23-1.93-1.57,0-1,.74-1.38,1.63-1.38q7.34,0,14.67,0A1.32,1.32,0,0,1,29.24,28.25Z"/><path class="cls-1" d="M52.56,39.56a2.38,2.38,0,0,1-.13.95,29.9,29.9,0,0,1-16.72,0,2.38,2.38,0,0,1-.13-.95,1.19,1.19,0,0,1,0-2.07,2.13,2.13,0,0,1,.16-.93,29.65,29.65,0,0,1,16.7,0,2,2,0,0,1,.16.93A1.19,1.19,0,0,1,52.56,39.56Z"/><path class="cls-1" d="M52.92,46.08c-.14,1.71-1.57,1.31-2.63,1.34-1.95.06-3.91,0-5.87,0-2.28,0-4.56,0-6.84,0-1.12,0-2.47.14-2.37-1.62.08-1.37,1.17-1.34,2.15-1.35,4.4,0,8.81,0,13.21,0C51.68,44.47,53.07,44.32,52.92,46.08Z"/><path class="cls-1" d="M5.9,23.27V20.79c-.15,1-.3,1.92-.42,2.88-.26,1.67-.48,3.23-.64,4.9v.79c-.06.76-.12,1.52-.17,2.28a.81.81,0,0,0,0,.16c-.13,1.94-.2,3.87-.23,5.81,0,.53,0,1.06,0,1.59v.33c0,.37,0,.75,0,1.12,0,2.26.13,4.51.31,6.77a.22.22,0,0,0,0,.08c0,.35,0,.7.08,1,0,.15,0,.31,0,.46.15,1.55.34,3.32.58,4.87a0,0,0,0,1,0,0q.23,1.71.51,3.42V54.9ZM6,57.42a91.57,91.57,0,0,0,18.8-.06A118,118,0,0,1,6,57.42Zm36.57-.06a65.08,65.08,0,0,0,15.84,0A82.19,82.19,0,0,1,42.58,57.36ZM59.94,40.8a2.72,2.72,0,0,0,0-.28c0-2-.19-4-.39-6-.13-1.2-.28-2.41-.45-3.62,0-.29-.09-.59-.13-.88a2.49,2.49,0,0,0-.25-.29,1.72,1.72,0,0,0-1.93-.4h0a1.78,1.78,0,0,0-.36.14l.24,0,1.85.17h0q0,12.69,0,25.4v2.25c.21-1,.39-2,.55-3,.23-1.22.41-2.3.54-3.47,0-.23,0-.45,0-.68.1-.93.17-1.86.22-2.79a.66.66,0,0,0,0-.2C60,45.08,60,42.94,59.94,40.8Z"/><path class="cls-1" d="M42.58,61.3l1.22,3.92c-.08.32-.14.9-.26.91-6.89.64-13.77,1.34-20.62-.34l1-4c2.34-2,5.14-.84,7.69-.9C35.25,60.79,39,60.19,42.58,61.3Z"/><path class="cls-1" d="M5.93,54.9v2.43c-1.1-.75-.88-2-1.09-3-1.21-2-.66-4.29-.75-6.45l0-.42V31.61c.2-2.19-.36-4.47.28-6.62h0a6.21,6.21,0,0,1,.3-.82h0a3.86,3.86,0,0,1,.2-.41c.24-1,0-2.24,1.05-3v2.48Z"/><path class="cls-1" d="M60.27,52.39v0a5.5,5.5,0,0,1-.44,1.45,4.92,4.92,0,0,1-.24.45c-.21,1.06,0,2.28-1.09,3V55.08q0-12.7,0-25.4h0l.19.05a2,2,0,0,1,1.49,1.09h0c.4.92,0,2.17.12,3.17.18,2.09,0,4.21,0,6.31v7.11C60.24,49.06,60.55,50.76,60.27,52.39Z"/><path class="cls-1" d="M22.92,65.79c7,.87,14,2,20.88-.57.61.8.62,1.79-.43,1.83a132.47,132.47,0,0,1-19.62-.16C23.44,66.86,23.2,66.17,22.92,65.79Z"/><path class="cls-1" d="M24.81,57.36A39,39,0,0,1,6,57.42,118,118,0,0,0,24.81,57.36Z"/><path class="cls-1" d="M42.58,61.3c-6.24-.36-12.47-1.08-18.66.46.66-1.94,2.35-1.64,3.73-1.49C32.61,60.79,37.75,58.92,42.58,61.3Z"/><path class="cls-1" d="M4.83,39.52v7.9a.94.94,0,0,1-1.58,0v-7.9A1,1,0,0,1,4.83,39.52Z"/><path class="cls-1" d="M58.42,57.41a27.48,27.48,0,0,1-15.84,0A82.19,82.19,0,0,0,58.42,57.41Z"/><path class="cls-1" d="M4.85,23.75v7.88a1,1,0,0,1-1.6,0c0-2.62,0-5.25,0-7.88Z"/><path class="cls-1" d="M3.24,31.63h1.6q0,3.94,0,7.89H3.25Q3.25,35.58,3.24,31.63Z"/><path class="cls-1" d="M59.58,54.31V47.42a1,1,0,0,1,1.58,0c0,2.29,0,4.59,0,6.88Z"/><path class="cls-1" d="M3.25,47.42H4.83c0,2.29,0,4.58,0,6.86C1.37,52.68,3.69,49.73,3.25,47.42Z"/><path class="cls-1" d="M27.76,57.36a14.37,14.37,0,0,1,11.87,0A34.29,34.29,0,0,1,27.76,57.36Z"/><path class="cls-1" d="M27.76,57.36a42.9,42.9,0,0,0,11.87,0A15.64,15.64,0,0,1,27.76,57.36Z"/><path class="cls-1" d="M59,23.5c-2.79.09-1.43-2.71-1.44-4.15s-1.29-4.21,1.3-4.31c3-.13.59,2.88,1.79,3.93C59.74,20.63,61.63,23.42,59,23.5Z"/><path class="cls-1" d="M61.59,9a2.7,2.7,0,1,1-5.4-.18,3.1,3.1,0,0,1,.25-1.23A2.69,2.69,0,0,1,61.49,8,3.68,3.68,0,0,1,61.59,9Z"/><path class="cls-1" d="M47.69,17.27a6.41,6.41,0,0,1-.39.52c0-.33,0-.66,0-1a2.86,2.86,0,0,1,.3.22Z"/><path class="cls-1" d="M62.21,26.26a4.51,4.51,0,0,1-.54.59h0c-1.63,1.57-3.41,1.06-5.25-.17l5.43-.4Z"/><path class="cls-1" d="M50.09,6.52l0,.39a1.22,1.22,0,0,0-.07.17,3.2,3.2,0,0,1-.55-.18Z"/><path class="cls-1" d="M61.49,8l-5.05-.39A2.69,2.69,0,0,1,61.49,8Z"/><path class="cls-1" d="M69.06,8.62a2.34,2.34,0,0,1-.38-.09,2.18,2.18,0,0,1,.14-.48Z"/><path class="cls-1" d="M70.45,17.76c0-2,0-3.92,0-5.88A13.56,13.56,0,0,1,70.45,17.76Z"/><path class="cls-1" d="M3.21,17.73A3.47,3.47,0,0,1,3,16.22Z"/><path class="cls-1" d="M44.56,16.8a3.55,3.55,0,0,0-.28-.76"/><path class="cls-1" d="M62.26,28.65c-2,3.8-.31,8-1.09,11.86a1.11,1.11,0,0,1-.8.43.82.82,0,0,1-.39-.11l0,0a1.4,1.4,0,0,1-.34-.28c-.44-2-.11-4-.06-6a9.88,9.88,0,0,0-.45-3.62,7.06,7.06,0,0,0-.57-1.22h0l-1.85-.17-.24,0V26.69l5.43-.4.36,0c0,.78,0,1.56.07,2.34C62.27,28.62,62.26,28.63,62.26,28.65Z"/><path class="cls-1" d="M70.45,17.76c0-2,0-3.92,0-5.88A5,5,0,0,1,70.45,17.76Z"/><path class="cls-1" d="M59.59,40.52h1.58v6.9H59.59Z"/><path class="cls-1" d="M27.43,41.49c-2.29,0-4.57,0-6.85,0-2.45,0-4.89,0-7.34,0-.85,0-1.63-.2-1.74-1.26-.13-1.32.69-1.69,1.79-1.69H27.48c.85,0,1.63.2,1.74,1.26C29.35,41.12,28.53,41.49,27.43,41.49Z"/><path class="cls-1" d="M29.24,28.25c0,1-.74,1.37-1.63,1.38-2.45,0-4.89,0-7.34,0H13.42c-1,0-2-.23-1.93-1.57,0-1,.74-1.38,1.63-1.38q7.34,0,14.67,0A1.32,1.32,0,0,1,29.24,28.25Z"/><path class="cls-1" d="M27.42,35.56c-2.44,0-4.89,0-7.33,0-2.29,0-4.57,0-6.85,0-.86,0-1.63-.21-1.73-1.26-.13-1.32.69-1.69,1.79-1.69H27.48c.86,0,1.63.21,1.73,1.26C29.34,35.2,28.52,35.56,27.42,35.56Z"/><path class="cls-1" d="M29.23,45.81c.09,1.37-.84,1.6-1.89,1.61-2.44,0-4.89,0-7.33,0H13.65c-1,0-2.05,0-2.16-1.35s.83-1.61,1.89-1.61H27.56C28.44,44.47,29.16,44.78,29.23,45.81Z"/><path class="cls-1" d="M52.92,46.08c-.14,1.71-1.57,1.31-2.63,1.34-1.95.06-3.91,0-5.87,0-2.28,0-4.56,0-6.84,0-1.12,0-2.47.14-2.37-1.62.08-1.37,1.17-1.34,2.15-1.35,4.4,0,8.81,0,13.21,0C51.68,44.47,53.07,44.32,52.92,46.08Z"/><path class="cls-1" d="M52.56,39.56a32.94,32.94,0,0,1-5.22.95,31.08,31.08,0,0,1-6.54,0,32.94,32.94,0,0,1-5.22-.95,1.19,1.19,0,0,1,0-2.07l.77-.1c.84,0,1.68-.08,2.52-.1h0q5.24-.18,10.47,0l2.48.1.77.11A1.19,1.19,0,0,1,52.56,39.56Z"/><path class="cls-1" d="M52.42,36.56a28.73,28.73,0,0,1-3.09.72q-1.06.19-2.13.3a28.48,28.48,0,0,1-6.26,0c-.69-.07-1.39-.17-2.08-.29h0c-1-.19-2.09-.43-3.13-.73A29.65,29.65,0,0,1,52.42,36.56Z"/><path class="cls-1" d="M52.58,37.49l-.18.09a63.64,63.64,0,0,1-16.66,0l-.18-.09a2.13,2.13,0,0,1,.16-.93h16.7A2,2,0,0,1,52.58,37.49Z"/><path class="cls-1" d="M52.56,39.56a2.38,2.38,0,0,1-.13.95,60,60,0,0,1-16.72,0,2.38,2.38,0,0,1-.13-.95Z"/><path class="cls-1" d="M52.43,40.51a29.9,29.9,0,0,1-16.72,0Z"/><path class="cls-1" d="M59,23.5c-2.79.09-1.43-2.71-1.44-4.15s-1.29-4.21,1.3-4.31c3-.13.59,2.88,1.79,3.93C59.74,20.63,61.63,23.42,59,23.5Z"/><path class="cls-1" d="M61.59,9a2.7,2.7,0,1,1-5.4-.18,3.1,3.1,0,0,1,.25-1.23A2.69,2.69,0,0,1,61.49,8,3.68,3.68,0,0,1,61.59,9Z"/><path class="cls-1" d="M35.73,37.58H52.4A30.09,30.09,0,0,1,35.73,37.58Z"/><path class="cls-2" d="M27.42,35.56c-2.44,0-4.89,0-7.33,0-2.29,0-4.57,0-6.85,0-.86,0-1.63-.21-1.73-1.26-.13-1.32.69-1.69,1.79-1.69H27.48c.86,0,1.63.21,1.73,1.26C29.34,35.2,28.52,35.56,27.42,35.56Z"/><path class="cls-2" d="M27.43,41.49c-2.29,0-4.57,0-6.85,0-2.45,0-4.89,0-7.34,0-.85,0-1.63-.2-1.74-1.26-.13-1.32.69-1.69,1.79-1.69H27.48c.85,0,1.63.2,1.74,1.26C29.35,41.12,28.53,41.49,27.43,41.49Z"/><path class="cls-2" d="M29.23,45.81c.09,1.37-.84,1.6-1.89,1.61-2.44,0-4.89,0-7.33,0H13.65c-1,0-2.05,0-2.16-1.35s.83-1.61,1.89-1.61H27.56C28.44,44.47,29.16,44.78,29.23,45.81Z"/><path class="cls-2" d="M29.24,28.25c0,1-.74,1.37-1.63,1.38-2.45,0-4.89,0-7.34,0H13.42c-1,0-2-.23-1.93-1.57,0-1,.74-1.38,1.63-1.38q7.34,0,14.67,0A1.32,1.32,0,0,1,29.24,28.25Z"/><path class="cls-2" d="M52.56,39.56a2.38,2.38,0,0,1-.13.95,29.9,29.9,0,0,1-16.72,0,2.38,2.38,0,0,1-.13-.95,1.19,1.19,0,0,1,0-2.07,2.13,2.13,0,0,1,.16-.93,29.65,29.65,0,0,1,16.7,0,2,2,0,0,1,.16.93A1.19,1.19,0,0,1,52.56,39.56Z"/><path class="cls-2" d="M52.92,46.08c-.14,1.71-1.57,1.31-2.63,1.34-1.95.06-3.91,0-5.87,0-2.28,0-4.56,0-6.84,0-1.12,0-2.47.14-2.37-1.62.08-1.37,1.17-1.34,2.15-1.35,4.4,0,8.81,0,13.21,0C51.68,44.47,53.07,44.32,52.92,46.08Z"/><path class="cls-3" d="M61.77,55.6l0,.14a2.55,2.55,0,0,1-.27.82c-.25,2.24-1.66,3.36-3.73,3.83-4,1.31-8.24-.88-12.13,1.17.71,3.68,1.24,7.41,2.21,11,.4,1.51,1.84,3.61,0,4-2,.45-2.16-2.13-2.28-3.86,0-.48,0-1,0-1.45-.26-.62-.62-1.38-1.26-1.39l-1.93-.05c-6.81-.22-13.63-.81-20.42.47L20.8,72.1a1.21,1.21,0,0,1-1.9,0c0-3.12,1.09-6,2.08-8.88v0c.94-2.74-1.07-2.35-2.63-2.45-4.13-.25-8.29.52-12.4-.44-3.38-.09-3.36-2.8-3.36-4.94,0-11.42.11-22.85.19-34.28a3,3,0,0,1,1.45,2.66c0,.15,0,.3,0,.45s0,.25,0,.38,0,.26,0,.4h0c.07,2.21,0,4.44.09,6.65V32c0,1.62,0,3.24,0,4.85v.81c0,.53,0,1.07,0,1.6v.32c0,.38,0,.75,0,1.12v.72c0,1.74,0,3.48,0,5.22a7.66,7.66,0,0,1,0,.83,1.82,1.82,0,0,1,0,.33c0,1.72-.29,3.42.43,5v0a4.3,4.3,0,0,0,.35.67c.08.12.15.24.22.37a0,0,0,0,1,0,0c.18.31.34.65.5,1h0v2.43l.08.09a118,118,0,0,0,18.8-.06c.1-5.43,4.35-4.35,7.14-3.84,3.65.66,9.38-3.52,10.63,3.84a82.19,82.19,0,0,0,15.84,0l.08-.08V55.08a4.59,4.59,0,0,1,.54-.71h0a2.2,2.2,0,0,1,.54-.41l.17-.08h.07a2,2,0,0,1,1.09,0,1.66,1.66,0,0,1,.27.13h0a1.73,1.73,0,0,1,.47.4A3,3,0,0,1,61.77,55.6Z"/><path class="cls-4" d="M56.78,29.33h0l-.12.16-.24,0a13.13,13.13,0,0,1-9.5-6.15c-1.33-2.14-2.85-2.65-5.18-2.63-12,.12-23.89.08-35.84.09v2.48l-.42.4h0l-.31.3-.31.12-.2.06h0a1.53,1.53,0,0,1-.36,0,1.5,1.5,0,0,1-1.05-.45l-.45-2.66c-1-1.37-3.11-2-2.73-4.29A3.54,3.54,0,0,1,3,16.22l.24,1.51c12.44,0,24.87.06,37.3,0,1.38,0,3,.59,4.05-1L44.28,16a4.2,4.2,0,0,1,3,.77,2.86,2.86,0,0,1,.3.22l.13.24a6.41,6.41,0,0,1-.39.52c1.88,4.14,3.79,8.27,9.1,8.9,0,0,0,0,0,0,.18.14.37.26.55.38A2.61,2.61,0,0,1,56.78,29.33Z"/><path class="cls-5" d="M50.12,6.91a1.22,1.22,0,0,0-.07.17,3.2,3.2,0,0,1-.55-.18c-2.25,3-2.35,6.43-2.24,9.91a2.86,2.86,0,0,1,.3.22l.13.24a6.41,6.41,0,0,1-.39.52l-2.74-1L44.28,16a2.5,2.5,0,0,0-2.55-1.24q-18.09.07-36.18,0c-1.54,0-2.46.38-2.58,1.41l.24,1.51L.05,16.8c-.42-4.18,2.21-4.94,5.52-4.94,10.66,0,21.32-.12,32,.06,4.1.07,7.8.22,8.88-5,.16-.8,1.24-1.41,1.9-2.11,1.54-.27,1.67.68,1.76,1.68Z"/><path class="cls-6" d="M61.49,8l-5.05-.39A2.69,2.69,0,0,1,61.49,8Z"/><path class="cls-6" d="M71.31,7.91a2.6,2.6,0,0,1-2,.75l-.22,0a2.34,2.34,0,0,1-.38-.09,2.18,2.18,0,0,1,.14-.48C62.36,1.76,58.06,1.37,50.09,6.52l0,.39a1.22,1.22,0,0,0-.07.17,3.2,3.2,0,0,1-.55-.18,2.06,2.06,0,0,0-1.17-2.06C55.85-2.72,67.18-1.21,71.31,7.91Z"/><path class="cls-4" d="M62.56,28.87l-.3-.22,0,0L62,28.45a2.56,2.56,0,0,1-.31-1.59h0a3.21,3.21,0,0,1,.07-.43l.11-.13.36,0c3.94-1.68,6.94-4.27,8.24-8.5,0-2,0-3.92,0-5.88-.47-1.08-.93-2.17-1.4-3.26a2.34,2.34,0,0,1-.38-.09,2.18,2.18,0,0,1,.14-.48l2.49-.14C76.77,17.2,71.21,25.29,62.56,28.87Z"/><path class="cls-7" d="M61.94,49.31c-.11,2.09.32,4.22-.17,6.29l0,.14a6.55,6.55,0,0,1-.27.82c-.09-.75-.18-1.5-.28-2.26h0a3.28,3.28,0,0,1-.27-.38,5,5,0,0,1-.65-1.5c-.43-1.61-.17-3.33-.28-5v-.31c0-2.09,0-4.19,0-6.28V40.3c0-2.64-.11-5.27.1-7.89,0-.52,0-1.07.12-1.59a2.24,2.24,0,0,1,2-2.2l.07,0,.28.27C61.23,35.65,62.32,42.5,61.94,49.31Z"/><path class="cls-8" d="M45.49,71.29a3.8,3.8,0,0,0-3.19-1.44H42c-6.71.28-13.44-.56-20.14.46,1.58-2.22,3.91-1.11,5.88-1.18,4.72-.16,9.46-.07,14.2,0C43.55,69.11,45.42,68.78,45.49,71.29Z"/><path class="cls-8" d="M21,63.22v0c0-2.49-1.81-2.1-3.42-2.23-3.86-.29-7.81.78-11.61-.66,4.33,0,8.66-.09,13-.09C21,60.23,22.66,60.62,21,63.22Z"/><path class="cls-9" d="M21.08,73.93c-.28,1.26.13,3.42-2.08,3s-.87-2.26-.73-3.51a4.23,4.23,0,0,1,.63-1.28h1.9A5.48,5.48,0,0,1,21.08,73.93Z"/><path class="cls-10" d="M57.74,60.39c-3.93,1.51-8.2-.42-12.13,1.17C49.42,58.71,53.7,60.82,57.74,60.39Z"/><path class="cls-2" d="M27.42,35.56c-2.44,0-4.89,0-7.33,0-2.29,0-4.57,0-6.85,0-.86,0-1.63-.21-1.73-1.26-.13-1.32.69-1.69,1.79-1.69H27.48c.86,0,1.63.21,1.73,1.26C29.34,35.2,28.52,35.56,27.42,35.56Z"/><path class="cls-2" d="M27.43,41.49c-2.29,0-4.57,0-6.85,0-2.45,0-4.89,0-7.34,0-.85,0-1.63-.2-1.74-1.26-.13-1.32.69-1.69,1.79-1.69H27.48c.85,0,1.63.2,1.74,1.26C29.35,41.12,28.53,41.49,27.43,41.49Z"/><path class="cls-2" d="M29.23,45.81c.09,1.37-.84,1.6-1.89,1.61-2.44,0-4.89,0-7.33,0H13.65c-1,0-2.05,0-2.16-1.35s.83-1.61,1.89-1.61H27.56C28.44,44.47,29.16,44.78,29.23,45.81Z"/><path class="cls-2" d="M29.24,28.25c0,1-.74,1.37-1.63,1.38-2.45,0-4.89,0-7.34,0H13.42c-1,0-2-.23-1.93-1.57,0-1,.74-1.38,1.63-1.38q7.34,0,14.67,0A1.32,1.32,0,0,1,29.24,28.25Z"/><path class="cls-2" d="M52.56,39.56a2.38,2.38,0,0,1-.13.95,29.9,29.9,0,0,1-16.72,0,2.38,2.38,0,0,1-.13-.95,1.19,1.19,0,0,1,0-2.07,2.13,2.13,0,0,1,.16-.93,29.65,29.65,0,0,1,16.7,0,2,2,0,0,1,.16.93A1.19,1.19,0,0,1,52.56,39.56Z"/><path class="cls-2" d="M52.92,46.08c-.14,1.71-1.57,1.31-2.63,1.34-1.95.06-3.91,0-5.87,0-2.28,0-4.56,0-6.84,0-1.12,0-2.47.14-2.37-1.62.08-1.37,1.17-1.34,2.15-1.35,4.4,0,8.81,0,13.21,0C51.68,44.47,53.07,44.32,52.92,46.08Z"/><path class="cls-2" d="M5.9,23.27V20.79c-.15,1-.3,1.92-.42,2.88-.26,1.67-.48,3.23-.64,4.9v.79c-.06.76-.12,1.52-.17,2.28a.81.81,0,0,0,0,.16c-.13,1.94-.2,3.87-.23,5.81,0,.53,0,1.06,0,1.59v.33c0,.37,0,.75,0,1.12,0,2.26.13,4.51.31,6.77a.22.22,0,0,0,0,.08c0,.35,0,.7.08,1,0,.15,0,.31,0,.46.15,1.55.34,3.32.58,4.87a0,0,0,0,1,0,0q.23,1.71.51,3.42V54.9ZM6,57.42a91.57,91.57,0,0,0,18.8-.06A118,118,0,0,1,6,57.42Zm36.57-.06a65.08,65.08,0,0,0,15.84,0A82.19,82.19,0,0,1,42.58,57.36ZM59.94,40.8a2.72,2.72,0,0,0,0-.28c0-2-.19-4-.39-6-.13-1.2-.28-2.41-.45-3.62,0-.29-.09-.59-.13-.88a2.49,2.49,0,0,0-.25-.29,1.72,1.72,0,0,0-1.93-.4h0a1.78,1.78,0,0,0-.36.14l.24,0,1.85.17h0q0,12.69,0,25.4v2.25c.21-1,.39-2,.55-3,.23-1.22.41-2.3.54-3.47,0-.23,0-.45,0-.68.1-.93.17-1.86.22-2.79a.66.66,0,0,0,0-.2C60,45.08,60,42.94,59.94,40.8Z"/><path class="cls-11" d="M42.58,61.3l1.22,3.92c-.08.32-.14.9-.26.91-6.89.64-13.77,1.34-20.62-.34l1-4c2.34-2,5.14-.84,7.69-.9C35.25,60.79,39,60.19,42.58,61.3Z"/><path class="cls-10" d="M5.93,54.9v2.43c-1.1-.75-.88-2-1.09-3-1.21-2-.66-4.29-.75-6.45l0-.42V31.61c.2-2.19-.36-4.47.28-6.62h0a6.21,6.21,0,0,1,.3-.82h0a3.86,3.86,0,0,1,.2-.41c.24-1,0-2.24,1.05-3v2.48Z"/><path class="cls-10" d="M60.27,52.39v0a5.5,5.5,0,0,1-.44,1.45,4.92,4.92,0,0,1-.24.45c-.21,1.06,0,2.28-1.09,3V55.08q0-12.7,0-25.4h0l.19.05a2,2,0,0,1,1.49,1.09h0c.4.92,0,2.17.12,3.17.18,2.09,0,4.21,0,6.31v7.11C60.24,49.06,60.55,50.76,60.27,52.39Z"/><path class="cls-8" d="M22.92,65.79c7,.87,14,2,20.88-.57.61.8.62,1.79-.43,1.83a132.47,132.47,0,0,1-19.62-.16C23.44,66.86,23.2,66.17,22.92,65.79Z"/><path class="cls-10" d="M24.81,57.36A39,39,0,0,1,6,57.42,118,118,0,0,0,24.81,57.36Z"/><path class="cls-10" d="M42.58,61.3c-6.24-.36-12.47-1.08-18.66.46.66-1.94,2.35-1.64,3.73-1.49C32.61,60.79,37.75,58.92,42.58,61.3Z"/><path class="cls-12" d="M4.83,39.52v7.9a.94.94,0,0,1-1.58,0v-7.9A1,1,0,0,1,4.83,39.52Z"/><path class="cls-10" d="M58.42,57.41a27.48,27.48,0,0,1-15.84,0A82.19,82.19,0,0,0,58.42,57.41Z"/><path class="cls-13" d="M4.85,23.75v7.88a1,1,0,0,1-1.6,0c0-2.62,0-5.25,0-7.88Z"/><path class="cls-14" d="M3.24,31.63h1.6q0,3.94,0,7.89H3.25Q3.25,35.58,3.24,31.63Z"/><path class="cls-15" d="M59.58,54.31V47.42a1,1,0,0,1,1.58,0c0,2.29,0,4.59,0,6.88Z"/><path class="cls-15" d="M3.25,47.42H4.83c0,2.29,0,4.58,0,6.86C1.37,52.68,3.69,49.73,3.25,47.42Z"/><path class="cls-2" d="M27.76,57.36a14.37,14.37,0,0,1,11.87,0A34.29,34.29,0,0,1,27.76,57.36Z"/><path class="cls-10" d="M27.76,57.36a42.9,42.9,0,0,0,11.87,0A15.64,15.64,0,0,1,27.76,57.36Z"/><path class="cls-16" d="M59,23.5c-2.79.09-1.43-2.71-1.44-4.15s-1.29-4.21,1.3-4.31c3-.13.59,2.88,1.79,3.93C59.74,20.63,61.63,23.42,59,23.5Z"/><path class="cls-16" d="M61.59,9a2.7,2.7,0,1,1-5.4-.18,3.1,3.1,0,0,1,.25-1.23A2.69,2.69,0,0,1,61.49,8,3.68,3.68,0,0,1,61.59,9Z"/><path class="cls-16" d="M47.69,17.27a6.41,6.41,0,0,1-.39.52c0-.33,0-.66,0-1a2.86,2.86,0,0,1,.3.22Z"/><path class="cls-16" d="M62.21,26.26a4.51,4.51,0,0,1-.54.59h0c-1.63,1.57-3.41,1.06-5.25-.17l5.43-.4Z"/><path class="cls-16" d="M50.09,6.52l0,.39a1.22,1.22,0,0,0-.07.17,3.2,3.2,0,0,1-.55-.18Z"/><path class="cls-16" d="M61.49,8l-5.05-.39A2.69,2.69,0,0,1,61.49,8Z"/><path class="cls-16" d="M69.06,8.62a2.34,2.34,0,0,1-.38-.09,2.18,2.18,0,0,1,.14-.48Z"/><path class="cls-16" d="M70.45,17.76c0-2,0-3.92,0-5.88A13.56,13.56,0,0,1,70.45,17.76Z"/><path class="cls-16" d="M3.21,17.73A3.47,3.47,0,0,1,3,16.22Z"/><path class="cls-14" d="M62.26,28.65c-2,3.8-.31,8-1.09,11.86a1.11,1.11,0,0,1-.8.43.82.82,0,0,1-.39-.11l0,0a1.4,1.4,0,0,1-.34-.28c-.44-2-.11-4-.06-6a9.88,9.88,0,0,0-.45-3.62,7.06,7.06,0,0,0-.57-1.22h0l-1.85-.17-.24,0V26.69l5.43-.4.36,0c0,.78,0,1.56.07,2.34C62.27,28.62,62.26,28.63,62.26,28.65Z"/><path class="cls-17" d="M70.45,17.76c0-2,0-3.92,0-5.88A5,5,0,0,1,70.45,17.76Z"/><path class="cls-18" d="M59.59,40.52h1.58v6.9H59.59Z"/><path class="cls-19" d="M27.43,41.49c-2.29,0-4.57,0-6.85,0-2.45,0-4.89,0-7.34,0-.85,0-1.63-.2-1.74-1.26-.13-1.32.69-1.69,1.79-1.69H27.48c.85,0,1.63.2,1.74,1.26C29.35,41.12,28.53,41.49,27.43,41.49Z"/><path class="cls-20" d="M29.24,28.25c0,1-.74,1.37-1.63,1.38-2.45,0-4.89,0-7.34,0H13.42c-1,0-2-.23-1.93-1.57,0-1,.74-1.38,1.63-1.38q7.34,0,14.67,0A1.32,1.32,0,0,1,29.24,28.25Z"/><path class="cls-21" d="M27.42,35.56c-2.44,0-4.89,0-7.33,0-2.29,0-4.57,0-6.85,0-.86,0-1.63-.21-1.73-1.26-.13-1.32.69-1.69,1.79-1.69H27.48c.86,0,1.63.21,1.73,1.26C29.34,35.2,28.52,35.56,27.42,35.56Z"/><path class="cls-22" d="M29.23,45.81c.09,1.37-.84,1.6-1.89,1.61-2.44,0-4.89,0-7.33,0H13.65c-1,0-2.05,0-2.16-1.35s.83-1.61,1.89-1.61H27.56C28.44,44.47,29.16,44.78,29.23,45.81Z"/><path class="cls-22" d="M52.92,46.08c-.14,1.71-1.57,1.31-2.63,1.34-1.95.06-3.91,0-5.87,0-2.28,0-4.56,0-6.84,0-1.12,0-2.47.14-2.37-1.62.08-1.37,1.17-1.34,2.15-1.35,4.4,0,8.81,0,13.21,0C51.68,44.47,53.07,44.32,52.92,46.08Z"/><path class="cls-23" d="M52.56,39.56a32.94,32.94,0,0,1-5.22.95,31.08,31.08,0,0,1-6.54,0,32.94,32.94,0,0,1-5.22-.95,1.19,1.19,0,0,1,0-2.07l.77-.1c.84,0,1.68-.08,2.52-.1h0q5.24-.18,10.47,0l2.48.1.77.11A1.19,1.19,0,0,1,52.56,39.56Z"/><path class="cls-24" d="M52.42,36.56a28.73,28.73,0,0,1-3.09.72q-1.06.19-2.13.3a28.48,28.48,0,0,1-6.26,0c-.69-.07-1.39-.17-2.08-.29h0c-1-.19-2.09-.43-3.13-.73A29.65,29.65,0,0,1,52.42,36.56Z"/><path class="cls-25" d="M52.58,37.49l-.18.09a63.64,63.64,0,0,1-16.66,0l-.18-.09a2.13,2.13,0,0,1,.16-.93h16.7A2,2,0,0,1,52.58,37.49Z"/><path class="cls-26" d="M52.56,39.56a2.38,2.38,0,0,1-.13.95,60,60,0,0,1-16.72,0,2.38,2.38,0,0,1-.13-.95Z"/><path class="cls-27" d="M52.43,40.51a29.9,29.9,0,0,1-16.72,0Z"/><path class="cls-4" d="M59,23.5c-2.79.09-1.43-2.71-1.44-4.15s-1.29-4.21,1.3-4.31c3-.13.59,2.88,1.79,3.93C59.74,20.63,61.63,23.42,59,23.5Z"/><path class="cls-28" d="M61.59,9a2.7,2.7,0,1,1-5.4-.18,3.1,3.1,0,0,1,.25-1.23A2.69,2.69,0,0,1,61.49,8,3.68,3.68,0,0,1,61.59,9Z"/><path class="cls-29" d="M35.73,37.58H52.4A30.09,30.09,0,0,1,35.73,37.58Z"/></g></g></svg>