<svg xmlns="http://www.w3.org/2000/svg" xmlns:xlink="http://www.w3.org/1999/xlink" viewBox="0 0 303.47 338.4"><defs><style>.cls-1{fill:url(#Blanc_Noir);}.cls-2{fill:#355b9b;}</style><linearGradient id="Blanc_Noir" x1="151.73" y1="338.4" x2="151.73" gradientUnits="userSpaceOnUse"><stop offset="0" stop-color="#fff"/><stop offset="1" stop-color="#1d1d1b"/></linearGradient></defs><title>html</title><g id="Calque_2" data-name="Calque 2"><g id="Calque_1-2" data-name="Calque 1"><path class="cls-1" d="M301.61,2.29A7,7,0,0,0,296.41,0H21.18A21.2,21.2,0,0,0,.08,23.05L23.51,288.66A21.34,21.34,0,0,0,38.8,307.17l106.46,30.42a21.31,21.31,0,0,0,11.64,0l106.45-30.42a21.32,21.32,0,0,0,15.29-18.51l24.8-281A7,7,0,0,0,301.61,2.29Zm-37,285.12a7,7,0,0,1-5.1,6.17L153,324a6.78,6.78,0,0,1-3.89,0L42.68,293.58a7,7,0,0,1-5.1-6.17L14.15,21.81a7.08,7.08,0,0,1,7-7.69H288.7Z"/><path class="cls-1" d="M55.9,282.67l93.25,26.64a7.15,7.15,0,0,0,1.94.27,7,7,0,0,0,1.93-.27l93.25-26.64a7.07,7.07,0,0,0,5.1-6.17L272.6,35.93a7.06,7.06,0,0,0-7-7.68H36.61a7.06,7.06,0,0,0-7,7.68L50.8,276.5A7.07,7.07,0,0,0,55.9,282.67Zm202-240.3L237.73,270.42l-86.64,24.76L64.44,270.42l-20.11-228Z"/><path class="cls-1" d="M219.31,109.75,221,88.56a3.53,3.53,0,0,0-3.52-3.82H84.58a3.53,3.53,0,0,0-3.52,3.76L86,166.18a3.52,3.52,0,0,0,3.52,3.3h91.21a3.54,3.54,0,0,1,3.53,3.77l-1.9,28.67A3.52,3.52,0,0,1,180,205l-28.12,9.61a3.56,3.56,0,0,1-2.28,0L121.43,205a3.49,3.49,0,0,1-2.38-3.07l-1.13-15.07a3.52,3.52,0,0,0-3.52-3.27H90.75a3.52,3.52,0,0,0-3.52,3.77L89.87,225a3.53,3.53,0,0,0,2.41,3.1l57.31,18.86a3.48,3.48,0,0,0,2.21,0l57.29-18.85a3.53,3.53,0,0,0,2.42-3.14l5-79.93a3.53,3.53,0,0,0-3.53-3.75H118.63a3.54,3.54,0,0,1-3.52-3.25l-1.73-21.18a3.54,3.54,0,0,1,3.53-3.82h98.88A3.53,3.53,0,0,0,219.31,109.75Z"/><path class="cls-2" d="M301.61,2.29A7,7,0,0,0,296.41,0H21.18A21.2,21.2,0,0,0,.08,23.05L23.51,288.66A21.34,21.34,0,0,0,38.8,307.17l106.46,30.42a21.31,21.31,0,0,0,11.64,0l106.45-30.42a21.32,21.32,0,0,0,15.29-18.51l24.8-281A7,7,0,0,0,301.61,2.29Zm-37,285.12a7,7,0,0,1-5.1,6.17L153,324a6.78,6.78,0,0,1-3.89,0L42.68,293.58a7,7,0,0,1-5.1-6.17L14.15,21.81a7.08,7.08,0,0,1,7-7.69H288.7Z"/><path class="cls-2" d="M55.9,282.67l93.25,26.64a7.15,7.15,0,0,0,1.94.27,7,7,0,0,0,1.93-.27l93.25-26.64a7.07,7.07,0,0,0,5.1-6.17L272.6,35.93a7.06,7.06,0,0,0-7-7.68H36.61a7.06,7.06,0,0,0-7,7.68L50.8,276.5A7.07,7.07,0,0,0,55.9,282.67Zm202-240.3L237.73,270.42l-86.64,24.76L64.44,270.42l-20.11-228Z"/><path class="cls-2" d="M219.31,109.75,221,88.56a3.53,3.53,0,0,0-3.52-3.82H84.58a3.53,3.53,0,0,0-3.52,3.76L86,166.18a3.52,3.52,0,0,0,3.52,3.3h91.21a3.54,3.54,0,0,1,3.53,3.77l-1.9,28.67A3.52,3.52,0,0,1,180,205l-28.12,9.61a3.56,3.56,0,0,1-2.28,0L121.43,205a3.49,3.49,0,0,1-2.38-3.07l-1.13-15.07a3.52,3.52,0,0,0-3.52-3.27H90.75a3.52,3.52,0,0,0-3.52,3.77L89.87,225a3.53,3.53,0,0,0,2.41,3.1l57.31,18.86a3.48,3.48,0,0,0,2.21,0l57.29-18.85a3.53,3.53,0,0,0,2.42-3.14l5-79.93a3.53,3.53,0,0,0-3.53-3.75H118.63a3.54,3.54,0,0,1-3.52-3.25l-1.73-21.18a3.54,3.54,0,0,1,3.53-3.82h98.88A3.53,3.53,0,0,0,219.31,109.75Z"/></g></g></svg>